<?xml version="1.0" encoding="utf-8"?>
<!-- Generator: Adobe Illustrator 19.2.1, SVG Export Plug-In . SVG Version: 6.00 Build 0)  -->
<svg version="1.1" id="Layer_1" xmlns="http://www.w3.org/2000/svg" xmlns:xlink="http://www.w3.org/1999/xlink" x="0px" y="0px"
	 viewBox="0 0 502.9 180.1" style="enable-background:new 0 0 502.9 180.1;" xml:space="preserve">
<style type="text/css">
	.st0{enable-background:new    ;}
</style>
<g>
	<g>
		<path d="M477.1,179.6H25.8c-11,0-19.9-8.9-19.9-19.9V20.8C5.9,9.9,14.8,1,25.8,1h451.4c11,0,19.9,8.9,19.9,19.9v138.9
			C497,170.7,488.1,179.6,477.1,179.6z M25.8,6c-8.2,0-14.9,6.7-14.9,14.9v138.9c0,8.2,6.7,14.9,14.9,14.9h451.4
			c8.2,0,14.9-6.7,14.9-14.9V20.8c0-8.2-6.7-14.9-14.9-14.9H25.8z"/>
	</g>
	<g class="st0">
		<path d="M190.5,82l14.7,38.4h-8.1l-3.4-9.2h-14.4l-3.4,9.2h-8L182.6,82H190.5z M181.8,104.4h9.4l-4.7-12.8L181.8,104.4z"/>
		<path d="M217.3,130.7h-7.8V92.4h7.8v2.3c0.6-0.8,1.6-1.4,2.8-2c1.3-0.6,2.7-0.9,4.2-0.9c2,0,3.9,0.4,5.4,1.2
			c1.6,0.8,2.9,1.9,4,3.2c1.1,1.3,1.9,2.9,2.5,4.7c0.6,1.8,0.8,3.6,0.8,5.6c0,2-0.3,3.8-0.8,5.6c-0.6,1.8-1.4,3.3-2.5,4.7
			c-1.1,1.3-2.4,2.4-4,3.2c-1.6,0.8-3.4,1.2-5.4,1.2c-1.5,0-2.9-0.3-4.2-0.9c-1.3-0.6-2.2-1.3-2.8-2V130.7z M217.3,111
			c0.5,1,1.2,1.7,2.1,2.3c1,0.6,2,0.9,3.1,0.9c2.1,0,3.8-0.7,4.9-2.2c1.2-1.5,1.8-3.3,1.8-5.6s-0.6-4.1-1.8-5.6
			c-1.2-1.5-2.8-2.2-4.9-2.2c-1.2,0-2.2,0.3-3.2,0.9c-0.9,0.6-1.6,1.4-2.1,2.3V111z"/>
		<path d="M249.7,130.7H242V92.4h7.8v2.3c0.6-0.8,1.6-1.4,2.8-2c1.3-0.6,2.7-0.9,4.2-0.9c2,0,3.9,0.4,5.4,1.2c1.6,0.8,2.9,1.9,4,3.2
			c1.1,1.3,1.9,2.9,2.5,4.7c0.6,1.8,0.8,3.6,0.8,5.6c0,2-0.3,3.8-0.8,5.6c-0.6,1.8-1.4,3.3-2.5,4.7c-1.1,1.3-2.4,2.4-4,3.2
			c-1.6,0.8-3.4,1.2-5.4,1.2c-1.5,0-2.9-0.3-4.2-0.9c-1.3-0.6-2.2-1.3-2.8-2V130.7z M249.7,111c0.5,1,1.2,1.7,2.1,2.3
			c1,0.6,2,0.9,3.1,0.9c2.1,0,3.8-0.7,4.9-2.2c1.2-1.5,1.8-3.3,1.8-5.6s-0.6-4.1-1.8-5.6c-1.2-1.5-2.8-2.2-4.9-2.2
			c-1.2,0-2.2,0.3-3.2,0.9c-0.9,0.6-1.6,1.4-2.1,2.3V111z"/>
		<path d="M286.6,109.9c1.8,1.3,3.7,2.3,5.8,3.1c2.1,0.8,4.2,1.2,6.5,1.2c2,0,3.6-0.3,4.9-1c1.3-0.6,1.9-1.7,1.9-3.2
			c0-1.2-0.4-2.2-1.2-2.8c-0.8-0.6-1.9-1.2-3.3-1.7l-5.6-1.9c-1.4-0.5-2.7-1-3.9-1.6c-1.2-0.6-2.2-1.4-3-2.3
			c-0.8-0.9-1.4-1.9-1.9-3.1c-0.5-1.2-0.7-2.6-0.7-4.2c0-1.8,0.4-3.4,1.1-4.7c0.7-1.4,1.7-2.5,2.9-3.4s2.7-1.6,4.3-2.1
			c1.6-0.5,3.4-0.7,5.3-0.7c2.4,0,4.5,0.3,6.4,0.8c1.9,0.5,3.6,1.3,5.2,2.2v7.8c-1.7-1.2-3.4-2.2-5.2-2.9c-1.8-0.7-3.9-1.1-6.1-1.1
			c-1.8,0-3.2,0.3-4.3,0.9c-1.1,0.6-1.7,1.6-1.7,2.9c0,1.2,0.4,2.1,1.1,2.7s1.8,1.1,3.1,1.5l6,2.1c3.2,1.1,5.6,2.5,7.1,4.3
			s2.2,4.2,2.2,7c0,1.9-0.4,3.5-1.1,5s-1.8,2.6-3.1,3.6s-2.9,1.6-4.6,2.1c-1.8,0.5-3.7,0.7-5.7,0.7c-2.6,0-4.9-0.3-7.1-1
			c-2.1-0.6-3.9-1.4-5.3-2.3V109.9z"/>
		<path d="M329.6,120.4h-7.8V98.7h-5.3v-6.2h5.3v-7.6h7.8v7.6h5.9v6.2h-5.9V120.4z"/>
		<path d="M365.4,106.4c0,2.1-0.3,4.1-1,5.9c-0.7,1.8-1.6,3.3-2.8,4.6c-1.2,1.3-2.6,2.3-4.3,3c-1.7,0.7-3.5,1.1-5.6,1.1
			c-2,0-3.9-0.4-5.6-1.1c-1.7-0.7-3.1-1.7-4.3-3c-1.2-1.3-2.1-2.8-2.8-4.6c-0.7-1.8-1-3.8-1-5.9c0-2.2,0.3-4.1,1-5.9
			c0.7-1.8,1.6-3.3,2.8-4.6c1.2-1.3,2.6-2.3,4.3-3c1.7-0.7,3.5-1.1,5.6-1.1c2,0,3.9,0.4,5.6,1.1c1.7,0.7,3.1,1.7,4.3,3
			c1.2,1.3,2.1,2.8,2.8,4.6C365.1,102.3,365.4,104.3,365.4,106.4z M357.7,106.4c0-2.4-0.5-4.3-1.5-5.8c-1-1.5-2.5-2.2-4.5-2.2
			c-2,0-3.4,0.8-4.5,2.2c-1,1.5-1.5,3.4-1.5,5.8c0,2.3,0.5,4.2,1.5,5.8c1,1.5,2.5,2.2,4.5,2.2c2,0,3.4-0.8,4.5-2.2
			C357.2,110.7,357.7,108.8,357.7,106.4z"/>
		<path d="M387.3,100.1c-1.1-0.6-2.4-0.9-3.9-0.9c-1.3,0-2.5,0.3-3.4,1c-1,0.7-1.6,1.6-1.9,2.9v17.3h-7.8V92.4h7.8v2.8
			c0.6-1,1.4-1.8,2.5-2.4c1.1-0.6,2.3-0.9,3.7-0.9c0.7,0,1.3,0.1,1.8,0.2c0.5,0.1,0.9,0.2,1.1,0.3V100.1z"/>
		<path d="M397.3,108.2c0.3,2.3,1.2,3.9,2.7,4.9c1.5,1,3.3,1.5,5.3,1.5c1.5,0,2.9-0.2,4.1-0.6c1.2-0.4,2.5-1,3.9-1.9v6.4
			c-1.2,0.8-2.5,1.4-4.1,1.8c-1.5,0.4-3.2,0.6-5.1,0.6c-2.1,0-4.1-0.3-5.8-1s-3.3-1.6-4.5-2.9c-1.3-1.2-2.2-2.8-2.9-4.5
			c-0.7-1.8-1-3.8-1-6c0-2.2,0.3-4.2,1-6c0.6-1.8,1.6-3.4,2.7-4.7c1.2-1.3,2.6-2.3,4.2-3c1.6-0.7,3.4-1.1,5.3-1.1c2,0,3.8,0.3,5.3,1
			c1.5,0.7,2.8,1.6,3.8,2.8c1,1.2,1.8,2.7,2.3,4.4c0.5,1.7,0.8,3.6,0.8,5.6v2.5H397.3z M403.1,98c-1.3,0-2.4,0.4-3.4,1.2
			c-1,0.8-1.7,2.1-2.2,3.9h10.6c-0.1-1.5-0.5-2.7-1.4-3.7C405.9,98.5,404.7,98,403.1,98z"/>
	</g>
	<g class="st0">
		<path d="M169.5,64.8V43.5h6.9c3.1,0,5.6,1,7.5,2.9c1.9,1.9,2.9,4.5,2.9,7.8c0,3.2-1,5.8-2.9,7.8c-1.9,1.9-4.4,2.9-7.5,2.9H169.5z
			 M172.2,62.4h4.1c2.4,0,4.3-0.7,5.6-2.2c1.4-1.5,2-3.5,2-6c0-2.5-0.7-4.5-2-6c-1.4-1.5-3.2-2.3-5.6-2.3h-4.1V62.4z"/>
		<path d="M203.5,57.1c0,2.3-0.7,4.3-2,5.8c-1.3,1.5-3,2.3-5.1,2.3c-2.1,0-3.8-0.8-5.1-2.3c-1.3-1.5-2-3.4-2-5.8
			c0-2.3,0.7-4.3,2-5.8c1.3-1.5,3-2.3,5.1-2.3c2.1,0,3.8,0.8,5.1,2.3C202.8,52.8,203.5,54.8,203.5,57.1z M200.9,57.1
			c0-1.7-0.4-3-1.2-4.1c-0.8-1.1-1.9-1.6-3.3-1.6c-1.4,0-2.5,0.5-3.3,1.6c-0.8,1.1-1.2,2.4-1.2,4.1c0,1.7,0.4,3,1.2,4.1
			s1.9,1.6,3.3,1.6c1.4,0,2.5-0.5,3.3-1.6S200.9,58.8,200.9,57.1z"/>
		<path d="M216.9,49.4l3.2,11.8l3.4-11.8h2.5l-4.5,15.4h-2.5l-3.2-11.7l-3.2,11.7h-2.5l-4.5-15.4h2.6l3.4,11.8l3.2-11.8H216.9z"/>
		<path d="M228.9,64.8V49.4h2.6v1.9c0.4-0.6,1.1-1.1,1.9-1.6c0.8-0.5,1.7-0.7,2.7-0.7c1.7,0,3.1,0.5,4,1.6c0.9,1,1.4,2.4,1.4,4.1
			v10.1h-2.6v-9.7c0-1.1-0.3-1.9-0.8-2.6c-0.6-0.7-1.4-1-2.6-1c-0.9,0-1.7,0.3-2.4,0.8c-0.7,0.5-1.2,1.2-1.5,2.1v10.4H228.9z"/>
		<path d="M248.5,42.2v22.6h-2.6V42.2H248.5z"/>
		<path d="M266.2,57.1c0,2.3-0.7,4.3-2,5.8c-1.3,1.5-3,2.3-5.1,2.3c-2.1,0-3.8-0.8-5.1-2.3c-1.3-1.5-2-3.4-2-5.8
			c0-2.3,0.7-4.3,2-5.8c1.3-1.5,3-2.3,5.1-2.3c2.1,0,3.8,0.8,5.1,2.3C265.5,52.8,266.2,54.8,266.2,57.1z M263.6,57.1
			c0-1.7-0.4-3-1.2-4.1c-0.8-1.1-1.9-1.6-3.3-1.6c-1.4,0-2.5,0.5-3.3,1.6c-0.8,1.1-1.2,2.4-1.2,4.1c0,1.7,0.4,3,1.2,4.1
			c0.8,1.1,1.9,1.6,3.3,1.6c1.4,0,2.5-0.5,3.3-1.6S263.6,58.8,263.6,57.1z"/>
		<path d="M278.3,56.6v-2c0-0.9-0.3-1.7-1-2.2c-0.7-0.6-1.6-0.8-2.7-0.8c-0.9,0-1.6,0.1-2.3,0.4c-0.7,0.2-1.4,0.6-2,1v-2.5
			c0.5-0.4,1.2-0.7,2.1-0.9c0.9-0.2,1.8-0.4,2.7-0.4c1.8,0,3.2,0.5,4.3,1.4c1,0.9,1.5,2.2,1.5,3.9v10.5h-2.5v-1.1
			c-0.3,0.3-0.8,0.6-1.5,0.9c-0.7,0.3-1.5,0.5-2.4,0.5c-1.6,0-2.9-0.4-4-1.3c-1.1-0.9-1.7-2.1-1.7-3.6c0-1.4,0.6-2.6,1.7-3.5
			c1.1-0.9,2.5-1.3,4.2-1.3c0.8,0,1.5,0.1,2.3,0.4S278,56.3,278.3,56.6z M278.3,61v-1.6c-0.2-0.6-0.7-1-1.3-1.4
			c-0.7-0.3-1.4-0.5-2.2-0.5c-0.9,0-1.8,0.2-2.5,0.6c-0.8,0.4-1.1,1.1-1.1,2s0.4,1.6,1.1,2.1c0.8,0.5,1.6,0.7,2.5,0.7
			c0.8,0,1.6-0.2,2.2-0.5C277.7,62.1,278.1,61.6,278.3,61z"/>
		<path d="M295.5,64.8V63c-0.4,0.6-1,1-1.7,1.5c-0.8,0.4-1.7,0.6-2.6,0.6c-2.2,0-4-0.8-5.2-2.4c-1.2-1.6-1.8-3.5-1.8-5.6
			c0-2.2,0.6-4,1.8-5.6c1.2-1.6,2.9-2.4,5.2-2.4c0.9,0,1.8,0.2,2.6,0.6c0.8,0.4,1.4,0.9,1.7,1.5v-9h2.6v22.6H295.5z M295.5,60.2V54
			c-0.4-0.8-1-1.4-1.7-1.9c-0.7-0.5-1.5-0.7-2.3-0.7c-1.5,0-2.6,0.5-3.5,1.6c-0.8,1.1-1.3,2.4-1.3,4c0,1.6,0.4,3,1.3,4
			c0.8,1.1,2,1.6,3.5,1.6c0.8,0,1.6-0.2,2.3-0.7C294.5,61.6,295.1,61,295.5,60.2z"/>
		<path d="M323.4,57.1c0,2.3-0.7,4.3-2,5.8c-1.3,1.5-3,2.3-5.1,2.3c-2.1,0-3.8-0.8-5.1-2.3c-1.3-1.5-2-3.4-2-5.8
			c0-2.3,0.7-4.3,2-5.8c1.3-1.5,3-2.3,5.1-2.3c2.1,0,3.8,0.8,5.1,2.3C322.8,52.8,323.4,54.8,323.4,57.1z M320.8,57.1
			c0-1.7-0.4-3-1.2-4.1c-0.8-1.1-1.9-1.6-3.3-1.6c-1.4,0-2.5,0.5-3.3,1.6c-0.8,1.1-1.2,2.4-1.2,4.1c0,1.7,0.4,3,1.2,4.1
			c0.8,1.1,1.9,1.6,3.3,1.6c1.4,0,2.5-0.5,3.3-1.6S320.8,58.8,320.8,57.1z"/>
		<path d="M327,64.8V49.4h2.6v1.9c0.4-0.6,1.1-1.1,1.9-1.6c0.8-0.5,1.7-0.7,2.7-0.7c1.7,0,3.1,0.5,4,1.6s1.4,2.4,1.4,4.1v10.1h-2.6
			v-9.7c0-1.1-0.3-1.9-0.8-2.6c-0.6-0.7-1.4-1-2.6-1c-0.9,0-1.7,0.3-2.4,0.8c-0.7,0.5-1.2,1.2-1.5,2.1v10.4H327z"/>
		<path d="M356,51.6v13.2h-2.6V51.6h-3.2v-2.2h3.2v-4.1h2.6v4.1h3.6v2.2H356z"/>
		<path d="M362.7,64.8V42.2h2.6v9.1c0.4-0.6,1.1-1.1,1.9-1.6c0.8-0.5,1.7-0.7,2.7-0.7c1.7,0,3.1,0.5,4,1.6c0.9,1,1.4,2.4,1.4,4.1
			v10.1h-2.6v-9.7c0-1.1-0.3-1.9-0.8-2.6c-0.6-0.7-1.4-1-2.6-1c-0.9,0-1.7,0.3-2.4,0.8c-0.7,0.5-1.2,1.2-1.5,2.1v10.4H362.7z"/>
		<path d="M390.7,63.8c-0.6,0.5-1.3,0.8-2.1,1c-0.8,0.2-1.6,0.3-2.6,0.3c-2.2,0-4-0.7-5.4-2.1c-1.4-1.4-2-3.3-2-5.7
			c0-2.4,0.6-4.3,1.9-5.9c1.3-1.5,2.9-2.3,5-2.3c2.1,0,3.7,0.7,4.7,2.1c1.1,1.4,1.6,3.2,1.6,5.5v0.9h-10.6c0.1,1.8,0.6,3.1,1.6,4
			c1,0.9,2.2,1.3,3.6,1.3c0.9,0,1.6-0.1,2.3-0.3c0.7-0.2,1.4-0.6,2.1-1.1V63.8z M385.5,51.3c-1,0-1.9,0.3-2.7,1
			c-0.8,0.7-1.3,1.7-1.5,3.2h7.9c0-1.1-0.4-2.1-1-3C387.6,51.7,386.7,51.3,385.5,51.3z"/>
	</g>
	<path id="icon" d="M116.6,67.6c5.4,0.5,10.3,3.3,13.3,7.8c-4.8,2.8-7.8,7.9-7.9,13.5c0,6.4,4,12,10,14.2c0,0-7.9,18.5-16.7,18.5
		c-5,0-5.3-2.8-11.9-2.8c-5.7,0-7.7,2.8-12,2.8c-8.3,0-19.1-18-19.1-32.7c0-15.2,10.9-21.3,17.7-21.3c6,0,8.5,3.5,13.3,3.5
		C107.4,71.1,110.6,67.6,116.6,67.6z M115.2,52c1.2,7.5-5.6,16.7-13.8,16.4C100.3,59,109,52.6,115.2,52L115.2,52z"/>
</g>
</svg>
