<svg id="Layer_1" xmlns="http://www.w3.org/2000/svg" width="100" height="100" viewBox="0 0 100 100"><style>.st0{fill:#34B3E7;}</style><path id="XMLID_39_" class="st0" d="M25 30.2l13 12.4-3.2 3.8c-.8.9-1.4 2.6 0 5.7 2.8 6.1 12.5 14.8 17.9 14.8 1.1 0 2-.4 2.7-1.1.1-.1.2-.2.2-.3.2-.5 1.6-1.9 3-3.3l13 12.4c-2.2 2.2-3 3.1-3.3 3.6l-.3.3c-1.5 1.3-3.5 3.2-7.2 3.2-6.2 0-14.8-5.2-25.6-15.5-22.8-21.5-16.6-29.1-14-32.3l.1-.1c.6-.3 1.5-1.3 3.7-3.6m0-4c-1.1 0-2.1.4-2.9 1.2l-.9.9c-.8.9-1.6 1.7-2 2-.3.2-.6.4-.8.6l-.1.1-.3.3c-1.5 1.9-4.7 5.8-3.3 12.6 1.4 7 7.2 15.2 17.7 25.1 11.7 11.2 21 16.6 28.3 16.6 5 0 7.9-2.5 9.6-4l.2-.2.2-.2.3-.3c.2-.2.4-.5.6-.7.2-.2.7-.9 2.7-2.9.8-.8 1.2-1.8 1.2-2.9 0-1.1-.5-2.1-1.2-2.8l-13-12.4c-.8-.7-1.8-1.1-2.8-1.1-1 0-2 .4-2.8 1.2C54 61 53 62 52.4 62.8c-3.4-.3-11.7-7.2-14.1-12.5-.4-.9-.5-1.4-.5-1.6l3.1-3.7c1.4-1.6 1.2-4-.3-5.5l-13-12.4c-.7-.6-1.6-.9-2.6-.9z"/><path class="st0" d="M85.5 56.4c-1.1 0-2-.9-2-2 0-20-16.2-36.2-36.2-36.2-1.1 0-2-.9-2-2s.9-2 2-2c22.2 0 40.2 18 40.2 40.2 0 1.1-.9 2-2 2z" id="XMLID_28_"/><path class="st0" d="M73.4 59.1c-1.1 0-2-.9-2-2 0-14.7-11.9-26.6-26.6-26.6-1.1 0-2-.9-2-2s.9-2 2-2c16.9 0 30.6 13.7 30.6 30.6 0 1.1-.9 2-2 2z" id="XMLID_27_"/></svg>