<?xml version="1.0" encoding="utf-8"?>
<!-- Generator: Adobe Illustrator 19.2.1, SVG Export Plug-In . SVG Version: 6.00 Build 0)  -->
<svg version="1.1" id="Layer_1" xmlns="http://www.w3.org/2000/svg" xmlns:xlink="http://www.w3.org/1999/xlink" x="0px" y="0px"
	 viewBox="0 0 28.1 18.6" style="enable-background:new 0 0 28.1 18.6;" xml:space="preserve">
<style type="text/css">
	.st0{fill:#63EBA2;}
</style>
<path class="st0" d="M6,14.6c-0.3,0-0.7-0.1-1-0.3c-0.6-0.4-1-1-1-1.7l0-5.9c0-1.1,0.9-2,2-2c0,0,0,0,0,0c1.1,0,2,0.9,2,2L8,9
	l14-8.5c0.9-0.6,2.2-0.3,2.7,0.7C25.3,2.2,25,3.4,24,4l-17,10.3C6.8,14.5,6.4,14.6,6,14.6z"/>
</svg>
