<?xml version="1.0" encoding="utf-8"?>
<!-- Generator: Adobe Illustrator 19.2.1, SVG Export Plug-In . SVG Version: 6.00 Build 0)  -->
<svg version="1.1" id="Layer_1" xmlns="http://www.w3.org/2000/svg" xmlns:xlink="http://www.w3.org/1999/xlink" x="0px" y="0px"
	 viewBox="0 0 100 100" style="enable-background:new 0 0 100 100;" xml:space="preserve">
<g>
	<path d="M96.4,80c-0.2,0-0.3,0-0.5,0C79,80,62,80,45.1,80c-0.4,0-0.6-0.1-0.7-0.6c-0.6-2.1-1.2-4.2-1.8-6.3c0-0.1-0.1-0.2-0.1-0.4
		c15.6,0,31.1,0,46.6,0c0-17,0-33.9,0-50.9c-24.2,0-48.4,0-72.7,0c0,8.3,0,16.5,0,24.8c-1-0.3-1.8-0.7-2.8-0.9
		c-1.4-0.4-2.8-0.7-4.2-1.1c-0.2-0.1-0.4-0.1-0.4-0.4c0-9.9,0-19.7,0-29.6c0,0,0-0.1,0-0.1c29.1,0,58.2,0,87.3,0
		C96.4,36.3,96.4,58.2,96.4,80z"/>
	<path d="M3.6,49.3c3.2,0.3,6.4,0.9,9.4,2c13.1,4.8,21.6,13.9,25.6,27.3c0.6,2.2,1,4.4,1.2,6.6c0,0.1,0,0.2,0,0.4
		c-2.4,0-4.8,0-7.2,0c-0.1-0.9-0.2-1.8-0.4-2.7C29.7,70.4,20.3,60.4,8,57.4c-1.4-0.4-2.9-0.5-4.4-0.8C3.6,54.1,3.6,51.7,3.6,49.3z"
		/>
	<path d="M3.6,62.1c5.8,0.8,10.9,3.2,15.2,7.3c4.3,4.1,6.9,9.1,8,14.8c0.1,0.4,0.1,0.8,0.1,1.2c-2.4,0-4.8,0-7.2,0
		c0-0.1-0.1-0.3-0.1-0.4c-0.8-3.8-2.5-7.1-5.2-9.8c-3-3.1-6.6-5-10.8-5.8C3.6,67,3.6,64.5,3.6,62.1z"/>
	<path d="M3.6,75c2.4,0.7,4.5,1.8,6.4,3.5c1.9,1.8,3.2,3.9,3.9,6.4c0,0.2,0.1,0.3,0.1,0.5c-3.5,0-6.9,0-10.4,0
		C3.6,82,3.6,78.5,3.6,75z"/>
</g>
</svg>
