<svg id="Layer_1" xmlns="http://www.w3.org/2000/svg" width="100" height="100" viewBox="0 0 100 100"><style>.st0{fill:#34B3E7;}</style><path class="st0" d="M78.9 34.7V21.8H62.8L49.7 11.3 36.6 21.8H20.5v12.9l-9.7 7.8v47.2h77.9V42.5l-9.8-7.8zm4.7 8.8l-4.7 3.7v-7.5l4.7 3.8zM49.7 16.4l6.7 5.4H43l6.7-5.4zm-25.2 9.4h50.4v24.7L49.7 70.7 24.5 50.5V25.8zm-4 14v7.5l-4.7-3.7 4.7-3.8zm64.1 45.9H14.7V47.8l5.7 4.6 29.2 23.4 29.2-23.4 5.7-4.6v37.9z" id="XMLID_47_"/><g id="XMLID_42_"><g id="XMLID_44_"><path id="XMLID_45_" class="st0" d="M57.4 40.5c0 1-.2 1.9-.5 2.7-.3.8-.7 1.5-1.2 2.1-.5.6-1 1.2-1.5 1.7s-1 1-1.5 1.6c-.4.5-.8 1.1-1.1 1.7-.3.6-.4 1.3-.3 2h-4.4c-.1-.8 0-1.6.2-2.3.2-.7.5-1.3.9-1.9.4-.6.8-1.2 1.3-1.7s.9-1.1 1.4-1.6c.4-.5.8-1.1 1.1-1.7.3-.6.4-1.2.4-1.9 0-1.1-.3-1.9-1-2.5s-1.6-.8-2.9-.8c-1.8 0-3.2.1-4.4.2v-3.4c.7-.2 1.6-.3 2.4-.4.9-.1 1.7-.1 2.5-.1 1.5 0 2.7.2 3.8.5s2 .8 2.7 1.3c.7.6 1.2 1.2 1.5 2s.6 1.5.6 2.5zm-5.5 16.6c0 .8-.3 1.5-.8 2-.6.6-1.2.8-2 .8s-1.5-.3-2-.8c-.6-.6-.8-1.2-.8-2s.3-1.5.8-2c.6-.6 1.2-.8 2-.8s1.5.3 2 .8c.6.5.8 1.2.8 2z"/></g></g></svg>