<svg id="Layer_1" xmlns="http://www.w3.org/2000/svg" width="100" height="100" viewBox="0 0 100 100"><style>.st0{fill:#34B3E7;}</style><path id="Facebook" class="st0" d="M68.8 30.4V20c0-2.8-2.3-5.1-5.1-5.1h-9.2c-5.7 0-10.2 1.6-13.4 4.8-2 2-4.5 5.8-4.4 11.8v3.2h-.9c-2.8 0-5.1 2.3-5.1 5.1v10.1c0 2.8 2.3 5.1 5.1 5.1h.9v24.8c0 2.8 2.3 5.1 5.1 5.1h12.4c2.8 0 5.1-2.3 5.1-5.1V54.9h3.2c2.5 0 4.6-1.8 5.1-4.3 0-.2.8-5.1 1.2-10.6.1-1.4-.4-2.8-1.4-3.9-.5-.5-1-.9-1.6-1.2 1.8-.6 3-2.4 3-4.5zm-5.1 0h-6.8c-1.3 0-2.7 1.4-2.7 2.4v6.9h9.4c-.4 5.3-1.2 10.1-1.2 10.1h-8.3v29.9H41.8V49.8h-6v-10h6v-8.2c0-1.6-.3-11.6 12.7-11.6h9.2v10.4z"/></svg>