<svg id="Layer_1" xmlns="http://www.w3.org/2000/svg" width="100" height="100" viewBox="0 0 100 100"><style>.st0{fill-rule:evenodd;clip-rule:evenodd;fill:#34B3E7;} .st1{fill:#34B3E7;}</style><g id="XMLID_2_"><path class="st0" d="M95.5 50c0-15.9-13-28.8-28.9-28.8-9.4 0-17.8 4.5-23 11.5-4.2-3.7-9.6-6-15.6-6C15 26.6 4.5 37.1 4.5 50c0 4 1 7.9 3 11.4L5.3 72.6l11.2-2.1c3.5 1.9 7.4 3 11.4 3 6 0 11.5-2.3 15.7-6 5.3 7 13.6 11.4 23 11.4 5 0 9.9-1.3 14.2-3.7l13.6 2.6-2.6-13.6c2.4-4.4 3.7-9.2 3.7-14.2zM27.9 70.4c-3.6 0-7.2-1-10.3-2.8l-.5-.3-7.9 1.5 1.5-7.9-.3-.5C8.6 57.2 7.6 53.7 7.6 50c0-11.2 9.1-20.3 20.3-20.3 5.4 0 10.3 2.1 13.9 5.5-2.6 4.3-4.1 9.4-4.1 14.8s1.5 10.5 4.1 14.8c-3.6 3.5-8.5 5.6-13.9 5.6zm52.3 1.5l-.5.3c-4 2.3-8.5 3.6-13.1 3.6-8.5 0-16.1-4.2-20.8-10.6-.3-.4-.6-.9-.9-1.3-.3-.5-.6-.9-.9-1.4-2-3.7-3.2-7.9-3.2-12.4s1.1-8.7 3.2-12.4c.3-.5.5-1 .8-1.4.3-.4.6-.9.9-1.3 4.7-6.4 12.3-10.6 20.9-10.6 14.2 0 25.8 11.6 25.8 25.8 0 4.6-1.2 9.1-3.6 13.1l-.3.5 2 10.3-10.3-2.2z" id="XMLID_4_"/><g id="XMLID_3_"><path id="XMLID_5_" class="st1" d="M33.1 45c0 .8-.1 1.5-.4 2.1-.2.6-.5 1.1-.9 1.6s-.7.9-1.2 1.3c-.4.4-.8.8-1.1 1.2-.3.4-.6.9-.8 1.3-.2.5-.3 1-.3 1.5H25c-.1-.6 0-1.2.1-1.8.2-.5.4-1 .7-1.5.3-.5.6-.9 1-1.3s.7-.8 1.1-1.2c.3-.4.6-.8.8-1.3.2-.4.3-.9.3-1.5 0-.9-.3-1.5-.8-1.9-.5-.4-1.3-.6-2.2-.6-1.4 0-2.5.1-3.4.2v-2.6c.6-.1 1.2-.3 1.9-.3.7-.1 1.3-.1 1.9-.1 1.1 0 2.1.1 2.9.4s1.5.6 2.1 1c.5.4.9 1 1.2 1.6.4.5.5 1.2.5 1.9zm-4.2 12.8c0 .6-.2 1.1-.7 1.6-.4.4-1 .7-1.6.7s-1.1-.2-1.6-.7c-.4-.4-.7-1-.7-1.6 0-.6.2-1.1.7-1.6.4-.4 1-.7 1.6-.7s1.1.2 1.6.7c.5.5.7 1 .7 1.6z"/></g></g><g id="XMLID_17_"><g id="XMLID_9_"><path id="XMLID_10_" class="st1" d="M54.8 45.2v-2.7h25v2.7h-25z"/></g><g id="XMLID_8_"><path id="XMLID_12_" class="st1" d="M54.8 51.4v-2.7h25v2.7h-25z"/></g><g id="XMLID_14_"><path id="XMLID_15_" class="st1" d="M54.8 57.5v-2.7h25v2.7h-25z"/></g></g></svg>