<?xml version="1.0" encoding="utf-8"?>
<!-- Generator: Adobe Illustrator 19.2.1, SVG Export Plug-In . SVG Version: 6.00 Build 0)  -->
<svg version="1.1" id="Layer_1" xmlns="http://www.w3.org/2000/svg" xmlns:xlink="http://www.w3.org/1999/xlink" x="0px" y="0px"
	 viewBox="0 0 100 100" style="enable-background:new 0 0 100 100;" xml:space="preserve">
<style type="text/css">
	.st0{fill:#010101;}
</style>
<g>
	<path class="st0" d="M91.1,42.9H78.3V30.1c0-1-0.8-1.8-1.8-1.8h-3.7c-1,0-1.8,0.8-1.8,1.8v12.8H58.3c-1,0-1.8,0.8-1.8,1.8v3.7
		c0,1,0.8,1.8,1.8,1.8h12.8v12.8c0,1,0.8,1.8,1.8,1.8h3.7c1,0,1.8-0.8,1.8-1.8V50.1h12.8c1,0,1.8-0.8,1.8-1.8v-3.7
		C92.9,43.7,92.1,42.9,91.1,42.9z"/>
	<path class="st0" d="M48,54.1c-2.7-1.9-5.1-4.7-5.2-5.6c0-1.6,0.1-2.3,3.7-5.1c4.5-3.6,7-8.2,7-13.2c0-4.5-1.4-8.5-3.7-11.3h1.8
		c0.4,0,0.7-0.1,1-0.3l5-3.7c0.6-0.4,0.9-1.2,0.7-2c-0.2-0.7-0.9-1.2-1.7-1.2H34.1c-2.5,0-5,0.4-7.4,1.3c-8.2,2.8-14,9.8-14,17
		c0,10.2,7.9,17.9,18.4,18.2c-0.2,0.8-0.3,1.6-0.3,2.4c0,1.6,0.4,3.1,1.2,4.5c-0.1,0-0.2,0-0.3,0c-10.1,0-19.1,4.9-22.6,12.3
		c-0.9,1.9-1.4,3.8-1.4,5.7c0,1.9,0.5,3.6,1.4,5.3c2.2,3.9,6.8,6.9,13.1,8.5c3.2,0.8,6.7,1.2,10.4,1.2c3.3,0,6.4-0.4,9.2-1.2
		c8.9-2.6,14.7-9.2,14.7-16.8C56.6,62.9,54.3,58.6,48,54.1z M19.5,70.8c0-5.3,6.7-10,14.4-10h0.2c1.7,0,3.3,0.3,4.8,0.7
		c0.5,0.4,1,0.7,1.5,1c3.6,2.4,5.9,4,6.6,6.6c0.2,0.6,0.2,1.3,0.2,1.9c0,6.6-4.9,10-14.6,10C25.3,81.1,19.5,76.6,19.5,70.8z
		 M26.5,20.7c1.2-1.4,2.8-2.1,4.5-2.1l0.2,0c5,0.1,9.8,5.7,10.6,12.4c0.5,3.7-0.3,7.3-2.2,9.4c-1.2,1.4-2.8,2.1-4.6,2.1c0,0,0,0,0,0
		H35c-4.9-0.2-9.8-5.9-10.6-12.6C23.9,26.2,24.6,22.8,26.5,20.7z"/>
</g>
</svg>
