<?xml version="1.0" encoding="utf-8"?>
<!-- Generator: Adobe Illustrator 19.2.1, SVG Export Plug-In . SVG Version: 6.00 Build 0)  -->
<svg version="1.1" id="Layer_1" xmlns="http://www.w3.org/2000/svg" xmlns:xlink="http://www.w3.org/1999/xlink" x="0px" y="0px"
	 viewBox="0 0 100 100" style="enable-background:new 0 0 100 100;" xml:space="preserve">
<g>
	<path d="M10.9,56.1c0-1.4,0-2.7,0-4.1c0.2-1.3,0.3-2.5,0.5-3.8c0.9-6.2,3.2-11.8,7.8-16.2c5.6-5.3,12.2-7.7,19.9-6
		c2.8,0.6,5.4,1.8,8.1,2.8c2.4,0.9,4.7,0.9,7.1,0c1.5-0.6,3-1.1,4.5-1.7c5.6-2.3,11.2-2.6,17-0.6c4.5,1.5,8.2,4.2,10.9,8.2
		c-15.3,9.6-12.9,31.1,2.5,37.8c0,0.3,0,0.7,0,1c-0.1,0.2-0.2,0.3-0.3,0.5c-2,5.6-4.9,10.7-8.5,15.5c-2.9,3.9-6.1,7.5-11.1,8.6
		c-1.1,0-2.2,0-3.3,0c-2.6-0.9-5.2-1.9-7.7-2.8c-4-1.4-8-1.5-12-0.1c-2.6,0.9-5.2,1.9-7.9,2.9c-1.5,0-2.9,0-4.3,0
		c-2.9-1-5.3-2.7-7.3-4.9C19,84.6,14,74.7,11.9,63.4C11.5,61,11.2,58.6,10.9,56.1z"/>
	<path d="M69.2,1.9c0.6,4.1-0.4,7.8-2.3,11.4c-3.1,5.8-7.7,9.7-14.4,10.7c-0.7,0.1-1.5,0.1-2.3,0.1c-0.4-2.4-0.1-4.6,0.6-6.8
		c2.8-8.4,8.4-13.5,17-15.3c0.2,0,0.3-0.2,0.4-0.2C68.5,1.9,68.9,1.9,69.2,1.9z"/>
</g>
</svg>
