<?xml version="1.0" encoding="utf-8"?>
<!-- Generator: Adobe Illustrator 19.2.1, SVG Export Plug-In . SVG Version: 6.00 Build 0)  -->
<svg version="1.1" id="Layer_1" xmlns="http://www.w3.org/2000/svg" xmlns:xlink="http://www.w3.org/1999/xlink" x="0px" y="0px"
	 viewBox="0 0 100 100" style="enable-background:new 0 0 100 100;" xml:space="preserve">
<style type="text/css">
	.st0{fill:#010101;}
</style>
<g id="black">
	<g id="slice" transform="translate(-600.000000, 0.000000)">
	</g>
	<g id="linkedin" transform="translate(16.000000, 17.000000)">
		<path class="st0" d="M10.6,73V20.1H-5.7V73H10.6z M10.6,1.3C10.5-3.4,7.4-7,2.3-7c-5.1,0-8.5,3.6-8.5,8.3C-6.2,6-3,9.7,2.1,9.7
			h0.1C7.4,9.7,10.6,6,10.6,1.3z M37.3,73V42.8c0-1.6,0.1-3.2,0.6-4.4c1.3-3.2,4.2-6.6,9.2-6.6c6.5,0,10.6,3.7,10.6,10.9V73h16.5V42
			c0-16.6-8.8-24.3-20.6-24.3c-9.7,0-13.9,5.4-16.3,9.1l0.1-7.1H20.9c0.2,5.1,0,53.2,0,53.2H37.3z"/>
	</g>
</g>
</svg>
