<?xml version="1.0" encoding="utf-8"?>
<!-- Generator: Adobe Illustrator 19.2.1, SVG Export Plug-In . SVG Version: 6.00 Build 0)  -->
<svg version="1.1" id="Layer_1" xmlns="http://www.w3.org/2000/svg" xmlns:xlink="http://www.w3.org/1999/xlink" x="0px" y="0px"
	 viewBox="0 0 100 100" style="enable-background:new 0 0 100 100;" xml:space="preserve">
<style type="text/css">
	.st0{fill:#010101;}
</style>
<g id="Icons_with_numbers">
	<g id="Group" transform="translate(-336.000000, 0.000000)">
		<path id="Shape" class="st0" d="M396.3,52.9l29.6,25.3c-1.1,1-2.5,1.6-4.1,1.6h-71.6c-1.6,0-3.1-0.6-4.1-1.6l29.6-25.4l10.3,9.1
			L396.3,52.9z M386,56l-39.9-34.2c1.1-1,2.5-1.6,4.1-1.6h71.6c1.6,0,3.1,0.6,4.1,1.6L386,56z M427.8,75l-28.9-24.5l28.9-25.1V75
			L427.8,75z M344.2,75V25.4l28.9,25.1L344.2,75L344.2,75z"/>
	</g>
</g>
</svg>
