<svg id="Layer_1" xmlns="http://www.w3.org/2000/svg" width="100" height="100" viewBox="0 0 100 100"><style>.st0{fill:#2FB4E9;}</style><path class="st0" d="M30.6 47.3c-.7-.6-1.8-1-3.2-1h-2v7.8h2.1c1.4 0 2.4-.4 3.1-1.1.7-.7 1-1.7 1-3 0-1.1-.3-2-1-2.7zm25.1 4.1c-.3-1-.7-1.9-1.3-2.6S53 47.4 52 47c-.9-.4-2.1-.7-3.4-.7h-3.1v16.6h3.1c1.2 0 2.3-.2 3.3-.6.9-.4 1.7-1 2.4-1.7s1.1-1.6 1.5-2.6c.3-1 .5-2.1.5-3.4-.2-1.1-.3-2.2-.6-3.2zm-25.1-4.1c-.7-.6-1.8-1-3.2-1h-2v7.8h2.1c1.4 0 2.4-.4 3.1-1.1.7-.7 1-1.7 1-3 0-1.1-.3-2-1-2.7zm25.1 4.1c-.3-1-.7-1.9-1.3-2.6S53 47.4 52 47c-.9-.4-2.1-.7-3.4-.7h-3.1v16.6h3.1c1.2 0 2.3-.2 3.3-.6.9-.4 1.7-1 2.4-1.7s1.1-1.6 1.5-2.6c.3-1 .5-2.1.5-3.4-.2-1.1-.3-2.2-.6-3.2zm25-13.2h-2v-9.5-.2c0-.4-.1-.8-.4-1l-15.7-18-.3-.3s-.1 0-.1-.1c-.1-.1-.2-.1-.3-.1H22.7c-1.8 0-3.2 1.4-3.2 3.2v26h-2c-2.5 0-4.6 2-4.6 4.6v23.8c0 2.5 2 4.6 4.6 4.6h2v16.3c0 1.8 1.4 3.2 3.2 3.2h52.8c1.8 0 3.2-1.4 3.2-3.2V71.1h2c2.5 0 4.6-2 4.6-4.6V42.8c0-2.6-2.1-4.6-4.6-4.6zm-58-26h37.1v16.4c0 .9.7 1.6 1.6 1.6h14.1v8H22.7v-26zm38.5 42.1c0 1.9-.3 3.6-.9 5.2-.6 1.5-1.5 2.8-2.6 3.9s-2.5 1.9-4.1 2.5c-1.6.6-3.4.9-5.4.9h-7.6V42.6h8.6c1.8 0 3.5.2 5 .7 1.5.5 2.7 1.2 3.8 2.2 1 1 1.8 2.2 2.4 3.7.5 1.5.8 3.2.8 5.1zM20.5 66.7V42.6h7.3c2.9 0 5.1.6 6.6 1.8 1.6 1.2 2.3 3 2.3 5.5 0 2.7-.8 4.7-2.5 6.1-1.7 1.4-3.9 2.1-6.9 2.1h-2v8.7h-4.8zm55 19.8H22.7V71.1h52.8v15.4zm4-40.1h-8.6v6.4h7.7v3.8h-7.7v10.1h-4.8V42.6h13.4v3.8zm-25.1 2.4C53.8 48 53 47.4 52 47c-.9-.4-2.1-.7-3.4-.7h-3.1v16.6h3.1c1.2 0 2.3-.2 3.3-.6.9-.4 1.7-1 2.4-1.7s1.1-1.6 1.5-2.6c.3-1 .5-2.1.5-3.4 0-1.1-.1-2.2-.4-3.2-.5-1-.9-1.9-1.5-2.6zm-23.8 4.3c.7-.7 1-1.7 1-3 0-1.2-.4-2.1-1-2.8-.7-.6-1.8-1-3.2-1h-2v7.8h2.1c1.4.1 2.4-.3 3.1-1zm0-5.8c-.7-.6-1.8-1-3.2-1h-2v7.8h2.1c1.4 0 2.4-.4 3.1-1.1.7-.7 1-1.7 1-3 0-1.1-.3-2-1-2.7zm0 0c-.7-.6-1.8-1-3.2-1h-2v7.8h2.1c1.4 0 2.4-.4 3.1-1.1.7-.7 1-1.7 1-3 0-1.1-.3-2-1-2.7z"/></svg>