<?xml version="1.0" encoding="utf-8"?>
<!-- Generator: Adobe Illustrator 19.2.1, SVG Export Plug-In . SVG Version: 6.00 Build 0)  -->
<svg version="1.1" id="Layer_1" xmlns="http://www.w3.org/2000/svg" xmlns:xlink="http://www.w3.org/1999/xlink" x="0px" y="0px"
	 viewBox="0 0 500 230" style="enable-background:new 0 0 500 230;" xml:space="preserve">
<style type="text/css">
	.st0{fill:#010101;}
</style>
<path class="st0" d="M208.7,122.2l-12.3-7.1l12.3-7.1c5.6-3.3,8.9-9,8.9-15.4c0-6.4-3.4-12.2-8.9-15.4L88.1,7.6
	c-5.6-3.3-12.2-3.3-17.7,0s-8.9,9-8.9,15.4v14.1l-12.2-7c-5.6-3.3-12.2-3.3-17.7,0s-8.9,9-8.9,15.4v139.3c0,6.4,3.4,12.2,8.9,15.4
	c2.8,1.6,5.8,2.4,8.9,2.4c3.1,0,6.1-0.8,8.9-2.4l12.2-7v14c0,6.4,3.4,12.2,8.9,15.4c2.8,1.6,5.8,2.4,8.9,2.4s6.1-0.8,8.9-2.4
	L208.9,153c5.6-3.3,8.9-9,8.9-15.4C217.6,131.1,214.3,125.4,208.7,122.2L208.7,122.2z M201.4,140.3L80.8,209.9
	c-1.3,0.8-2.6,0.4-3.2,0c-0.6-0.4-1.5-1.1-1.5-2.7V83.7c0-2.6-1.4-5-3.6-6.3c-4.9-2.8-10.9,0.7-10.9,6.3v92.6l-19.4,11.2
	c-1.3,0.8-2.6,0.4-3.2,0c-0.6-0.4-1.5-1.1-1.5-2.7V45.5c0-1.5,1-2.4,1.5-2.7c0.6-0.4,1.7-0.8,3.2,0l107,61.8c2.3,1.3,5.1,1.3,7.3,0
	c4.9-2.8,4.9-9.9,0-12.6L76.1,45.6V23.1c0-1.5,1-2.4,1.5-2.7c0.6-0.4,1.7-0.8,3.2,0L201.4,90c1.3,0.8,1.5,2,1.5,2.7
	c0,0.7-0.2,1.9-1.5,2.7l-19.5,11.3l-14.7,8.4h0.1l-72.9,42.1c-2.3,1.3-3.6,3.7-3.6,6.3c0,5.7,6.1,9.1,10.9,6.3l80.3-46.4l19.5,11.3
	c1.3,0.8,1.5,2,1.5,2.7C203,138.2,202.8,139.5,201.4,140.3L201.4,140.3z"/>
<path class="st0" d="M412.6,187.5l1.1-6.3c1.6,0.7,5.9,1.7,10.4,1.7c5.7,0,11.1-1.7,15.1-12.6l3.9-10.7L418,92.3h8.7l21,58.3
	l21.6-58.3h8l-30.2,80.1c-5.3,14-12.2,17.5-21.7,17.5C419.3,189.8,414.9,188.6,412.6,187.5L412.6,187.5z"/>
<path class="st0" d="M267.9,70.3h-21.1l-0.1,93.6h8.3v-37.4h12.8c20.8,0,35.3-9.4,35.3-28.3C303.3,79.5,289,70.3,267.9,70.3z
	 M267,119.3h-11.9v-42H267c16.5,0,27.6,5.6,27.6,21C294.6,113.8,283.5,119.3,267,119.3z"/>
<path class="st0" d="M314.8,153.9V66.3h8V153c0,2.5,0.8,4.2,4.1,4.2h7.6v6.4c-2.4,0.3-6.9,0.4-8.6,0.4
	C317.8,164.1,314.8,161,314.8,153.9L314.8,153.9z"/>
<path class="st0" d="M398.9,157.2c-3.4,0-4.1-1.7-4.1-4.2v-34c0-11.8-5.7-23.8-24.9-23.8c-6.4,0-15.9,1.3-23.9,8l3.3,5.8
	c6.5-4.9,12.5-6.9,19.3-6.9c13.7,0,18.2,8,18.2,18.8v6.9c-3.9-1.1-9-1.7-14.7-1.7c-16.2,0-29.4,5.6-29.4,20.7h0
	c0,9.9,5.7,18.6,20.1,18.5c6.3,0,13.8-1.7,21.4-8l2.9-2.4c0.3,6.2,3.1,9,10.7,9c1.7,0,6.2-0.1,8.6-0.4v-6.4H398.9z M387,147.9
	l-4.9,3.7c-6.5,5.1-12.1,7-18.2,7c-9.9,0-12.9-5-12.9-11.3c0-11.4,9.5-14.3,22.3-14.3c5.1,0,9.9,0.5,13.7,1.4V147.9z"/>
</svg>
