<?xml version="1.0" encoding="utf-8"?>
<!-- Generator: Adobe Illustrator 19.2.1, SVG Export Plug-In . SVG Version: 6.00 Build 0)  -->
<svg version="1.1" id="Layer_1" xmlns="http://www.w3.org/2000/svg" xmlns:xlink="http://www.w3.org/1999/xlink" x="0px" y="0px"
	 viewBox="0 0 100 100" style="enable-background:new 0 0 100 100;" xml:space="preserve">
<style type="text/css">
	.st0{fill:#020202;}
</style>
<path class="st0" d="M85.2,52.8L80.3,50l4.9-2.8c2.2-1.3,3.5-3.6,3.5-6.1c0-2.6-1.3-4.8-3.5-6.1l-48-27.7c-2.2-1.3-4.8-1.3-7.1,0
	s-3.5,3.6-3.5,6.1v5.6l-4.8-2.8c-2.2-1.3-4.8-1.3-7.1,0s-3.5,3.6-3.5,6.1v55.5c0,2.6,1.3,4.8,3.5,6.1c1.1,0.6,2.3,1,3.5,1
	c1.2,0,2.4-0.3,3.5-1l4.8-2.8v5.6c0,2.6,1.3,4.8,3.5,6.1c1.1,0.6,2.3,1,3.5,1c1.2,0,2.4-0.3,3.5-1l48-27.7c2.2-1.3,3.5-3.6,3.5-6.1
	C88.8,56.4,87.4,54.1,85.2,52.8L85.2,52.8z M82.3,60l-48,27.7c-0.5,0.3-1,0.2-1.3,0c-0.2-0.2-0.6-0.5-0.6-1.1V37.5
	c0-1-0.6-2-1.4-2.5c-1.9-1.1-4.3,0.3-4.3,2.5v36.9l-7.7,4.5c-0.5,0.3-1,0.2-1.3,0c-0.2-0.2-0.6-0.5-0.6-1.1V22.3
	c0-0.6,0.4-1,0.6-1.1c0.2-0.2,0.7-0.3,1.3,0l42.6,24.6c0.9,0.5,2,0.5,2.9,0c1.9-1.1,1.9-3.9,0-5l-32-18.5v-9c0-0.6,0.4-1,0.6-1.1
	c0.2-0.2,0.7-0.3,1.3,0l48,27.7c0.5,0.3,0.6,0.8,0.6,1.1c0,0.3-0.1,0.8-0.6,1.1l-7.8,4.5L68.7,50h0l-29,16.8
	c-0.9,0.5-1.4,1.5-1.4,2.5c0,2.3,2.4,3.6,4.3,2.5l32-18.5l7.8,4.5c0.5,0.3,0.6,0.8,0.6,1.1C82.9,59.2,82.9,59.7,82.3,60L82.3,60z"/>
</svg>
