<svg xmlns="http://www.w3.org/2000/svg" width="34" height="32" viewBox="0 0 34 32"><path fill="#444" d="M7.162 4.57c.152 0 .305 0 .457.153l20.875 10.82c.61.304.61.76 0 1.066L5.485 27.275c-.152.152-.152.152-.305.152-.457 0-.61-.305-.61-.762L6.55 5.333c0-.457.306-.762.61-.762zm0-4.57c-2.743 0-5.03 2.133-5.18 4.876L0 26.21c-.152 1.523.305 3.047 1.37 4.113C2.286 31.39 3.658 32 5.18 32c.763 0 1.677-.153 2.44-.61l22.856-10.82c1.83-.914 3.048-2.59 3.048-4.57s-1.067-3.81-2.895-4.725L9.752.608c-.762-.457-1.676-.61-2.59-.61z"/></svg>