<?xml version="1.0" encoding="utf-8"?>
<!-- Generator: Adobe Illustrator 19.2.1, SVG Export Plug-In . SVG Version: 6.00 Build 0)  -->
<svg version="1.1" id="Layer_1" xmlns="http://www.w3.org/2000/svg" xmlns:xlink="http://www.w3.org/1999/xlink" x="0px" y="0px"
	 viewBox="0 0 502.9 180.1" style="enable-background:new 0 0 502.9 180.1;" xml:space="preserve">
<style type="text/css">
	.st0{enable-background:new    ;}
</style>
<g>
	<path d="M476.2,179.6H24.8c-11,0-19.9-8.9-19.9-19.9V20.8C5,9.9,13.9,1,24.8,1h451.4c11,0,19.9,8.9,19.9,19.9v138.9
		C496.1,170.7,487.2,179.6,476.2,179.6z M24.8,6C16.6,6,10,12.6,10,20.8v138.9c0,8.2,6.7,14.9,14.9,14.9h451.4
		c8.2,0,14.9-6.7,14.9-14.9V20.8c0-8.2-6.7-14.9-14.9-14.9H24.8z"/>
</g>
<g class="st0">
	<path d="M169.6,113.9c1.2,0,2.4-0.2,3.5-0.5c1.1-0.3,2.1-0.8,2.9-1.5v-5.8h-6.5v-6.6h13.7v16.1c-1.9,1.9-4,3.3-6.4,4.2
		c-2.4,0.9-4.9,1.3-7.4,1.3c-2.9,0-5.5-0.5-7.9-1.4c-2.3-1-4.3-2.3-6-4.1c-1.6-1.8-2.9-3.8-3.8-6.2c-0.9-2.4-1.3-5.1-1.3-8
		c0-3,0.5-5.7,1.5-8.1c1-2.4,2.3-4.5,4.1-6.3s3.8-3.1,6.2-4.1c2.4-1,5.1-1.4,7.9-1.4c2.2,0,4.2,0.3,6.1,0.8c1.9,0.6,3.5,1.3,4.9,2.3
		v8c-1.6-1.2-3.2-2.2-5-2.9c-1.8-0.7-3.8-1-6-1c-1.7,0-3.3,0.3-4.7,0.9c-1.4,0.6-2.7,1.4-3.7,2.5c-1,1.1-1.8,2.4-2.4,4
		s-0.8,3.3-0.8,5.2s0.3,3.6,0.8,5.1c0.5,1.5,1.3,2.9,2.2,4c1,1.1,2.1,2,3.5,2.6C166.4,113.6,167.9,113.9,169.6,113.9z"/>
	<path d="M215.6,106.4c0,2.1-0.3,4.1-1,5.9c-0.7,1.8-1.6,3.3-2.8,4.6c-1.2,1.3-2.6,2.3-4.3,3c-1.7,0.7-3.5,1.1-5.6,1.1
		c-2,0-3.9-0.4-5.6-1.1c-1.7-0.7-3.1-1.7-4.3-3c-1.2-1.3-2.1-2.8-2.8-4.6c-0.7-1.8-1-3.8-1-5.9c0-2.2,0.3-4.1,1-5.9
		c0.7-1.8,1.6-3.3,2.8-4.6c1.2-1.3,2.6-2.3,4.3-3c1.7-0.7,3.5-1.1,5.6-1.1c2,0,3.9,0.4,5.6,1.1c1.7,0.7,3.1,1.7,4.3,3
		c1.2,1.3,2.1,2.8,2.8,4.6C215.2,102.3,215.6,104.3,215.6,106.4z M207.9,106.4c0-2.4-0.5-4.3-1.5-5.8c-1-1.5-2.5-2.2-4.5-2.2
		c-2,0-3.4,0.8-4.5,2.2c-1,1.5-1.5,3.4-1.5,5.8c0,2.3,0.5,4.2,1.5,5.8c1,1.5,2.5,2.2,4.5,2.2c2,0,3.4-0.8,4.5-2.2
		C207.4,110.7,207.9,108.8,207.9,106.4z"/>
	<path d="M246.4,106.4c0,2.1-0.3,4.1-1,5.9c-0.7,1.8-1.6,3.3-2.8,4.6c-1.2,1.3-2.6,2.3-4.3,3c-1.7,0.7-3.5,1.1-5.6,1.1
		c-2,0-3.9-0.4-5.6-1.1c-1.7-0.7-3.1-1.7-4.3-3c-1.2-1.3-2.1-2.8-2.8-4.6c-0.7-1.8-1-3.8-1-5.9c0-2.2,0.3-4.1,1-5.9
		c0.7-1.8,1.6-3.3,2.8-4.6c1.2-1.3,2.6-2.3,4.3-3c1.7-0.7,3.5-1.1,5.6-1.1c2,0,3.9,0.4,5.6,1.1c1.7,0.7,3.1,1.7,4.3,3
		c1.2,1.3,2.1,2.8,2.8,4.6C246,102.3,246.4,104.3,246.4,106.4z M238.7,106.4c0-2.4-0.5-4.3-1.5-5.8c-1-1.5-2.5-2.2-4.5-2.2
		c-2,0-3.4,0.8-4.5,2.2c-1,1.5-1.5,3.4-1.5,5.8c0,2.3,0.5,4.2,1.5,5.8c1,1.5,2.5,2.2,4.5,2.2c2,0,3.4-0.8,4.5-2.2
		C238.2,110.7,238.7,108.8,238.7,106.4z"/>
	<path d="M269.2,117.2c-0.6,0.7-1.5,1.4-2.7,1.9c-1.2,0.6-2.5,0.9-4.1,0.9c-2,0-3.8-0.4-5.4-1.1c-1.6-0.8-2.9-1.8-4-3.1
		c-1.1-1.3-1.9-2.8-2.4-4.5c-0.6-1.7-0.8-3.5-0.8-5.4c0-1.9,0.3-3.7,0.8-5.4c0.6-1.7,1.4-3.2,2.4-4.5c1.1-1.3,2.4-2.3,4-3.1
		c1.6-0.8,3.4-1.1,5.4-1.1c1.6,0,3,0.3,4.1,0.9c1.2,0.6,2.1,1.2,2.7,1.9v-2.2h7.7v24.9c0,2.6-0.4,4.8-1.3,6.5
		c-0.9,1.8-2,3.2-3.4,4.3c-1.4,1.1-3,1.9-4.8,2.4s-3.7,0.8-5.6,0.8c-1.9,0-3.7-0.2-5.4-0.7s-3.1-1-4.2-1.7v-7.6
		c1.5,1.2,2.9,2.1,4.5,2.7c1.5,0.5,3.2,0.8,5,0.8c1,0,2-0.1,2.9-0.4c0.9-0.3,1.7-0.7,2.4-1.2c0.7-0.5,1.2-1.2,1.6-2.1
		c0.4-0.9,0.6-1.8,0.6-3V117.2z M269.2,101.2c-0.5-0.8-1.1-1.5-2.1-2c-0.9-0.6-2-0.8-3.1-0.8c-2.1,0-3.7,0.7-4.8,2.1
		c-1.1,1.4-1.7,3.2-1.7,5.5c0,2.2,0.6,4,1.7,5.4c1.1,1.4,2.7,2.1,4.8,2.1c1.2,0,2.2-0.3,3.1-0.8c0.9-0.5,1.6-1.2,2.1-2.1V101.2z"/>
	<path d="M291.5,120.4h-7.8V79.7h7.8V120.4z"/>
	<path d="M303.9,108.2c0.3,2.3,1.2,3.9,2.7,4.9c1.5,1,3.3,1.5,5.3,1.5c1.5,0,2.9-0.2,4.1-0.6c1.2-0.4,2.5-1,3.9-1.9v6.4
		c-1.2,0.8-2.5,1.4-4.1,1.8c-1.5,0.4-3.2,0.6-5.1,0.6c-2.1,0-4.1-0.3-5.8-1s-3.3-1.6-4.5-2.9c-1.3-1.2-2.2-2.8-2.9-4.5
		c-0.7-1.8-1-3.8-1-6c0-2.2,0.3-4.2,1-6c0.6-1.8,1.6-3.4,2.7-4.7c1.2-1.3,2.6-2.3,4.2-3c1.6-0.7,3.4-1.1,5.3-1.1c2,0,3.8,0.3,5.3,1
		c1.5,0.7,2.8,1.6,3.8,2.8c1,1.2,1.8,2.7,2.3,4.4c0.5,1.7,0.8,3.6,0.8,5.6v2.5H303.9z M309.8,98c-1.3,0-2.4,0.4-3.4,1.2
		c-1,0.8-1.7,2.1-2.2,3.9h10.6c-0.1-1.5-0.5-2.7-1.4-3.7C312.5,98.5,311.3,98,309.8,98z"/>
	<path d="M348.5,107.1v13.3h-7.9V82h15.6c2,0,3.9,0.3,5.5,0.8c1.6,0.5,3.1,1.3,4.2,2.4s2.1,2.4,2.8,3.9c0.6,1.6,1,3.4,1,5.4
		c0,2-0.3,3.8-1,5.4c-0.6,1.5-1.6,2.8-2.8,3.9s-2.6,1.9-4.2,2.4c-1.6,0.5-3.5,0.8-5.5,0.8H348.5z M361.8,94.6c0-1.8-0.5-3.1-1.5-4.2
		c-1-1-2.5-1.6-4.6-1.6h-7.2v11.4h7.2c2.1,0,3.6-0.5,4.6-1.6S361.8,96.2,361.8,94.6z"/>
	<path d="M382.5,120.4h-7.8V79.7h7.8V120.4z"/>
	<path d="M404.6,102.9c0-1.3-0.5-2.4-1.6-3.2c-1.1-0.8-2.6-1.2-4.6-1.2c-1.4,0-2.8,0.2-4.1,0.6c-1.3,0.4-2.5,0.9-3.6,1.7v-6.7
		c1-0.6,2.3-1.2,4-1.6c1.7-0.5,3.4-0.7,5.3-0.7c3.9,0,6.8,0.9,8.9,2.8s3.1,4.5,3.1,7.9v17.8h-7.4v-1.5c-0.5,0.5-1.3,0.9-2.6,1.3
		s-2.6,0.7-4.2,0.7c-1.4,0-2.8-0.2-4-0.6s-2.3-1-3.3-1.8c-0.9-0.8-1.7-1.7-2.2-2.8c-0.5-1.1-0.8-2.4-0.8-3.9c0-1.3,0.3-2.6,0.8-3.7
		c0.5-1.1,1.3-2,2.3-2.8c1-0.8,2.1-1.4,3.4-1.8s2.7-0.7,4.3-0.7c1.2,0,2.4,0.2,3.6,0.5c1.2,0.3,2.1,0.7,2.7,1.1V102.9z M404.6,110.7
		c-0.3-0.8-1-1.3-1.9-1.8s-1.9-0.7-3-0.7c-0.6,0-1.2,0.1-1.8,0.2c-0.6,0.1-1.1,0.4-1.6,0.6c-0.5,0.3-0.8,0.6-1.1,1.1
		c-0.3,0.4-0.4,0.9-0.4,1.5c0,0.6,0.1,1.1,0.4,1.6c0.3,0.4,0.7,0.8,1.1,1.1c0.5,0.3,1,0.5,1.6,0.6c0.6,0.1,1.2,0.2,1.8,0.2
		c1.1,0,2.1-0.2,3-0.7s1.6-1,1.9-1.8V110.7z"/>
	<path d="M422,130.7l4.1-10.2l-10.7-28.1h8.2L430,111l6.4-18.6h7.8l-14.6,38.2H422z"/>
</g>
<g class="st0">
	<path d="M160,62.7c1,0,1.9-0.1,2.7-0.4s1.5-0.7,2.2-1.3v-5h-4.7v-2.3h7.2v8.3c-1,1.1-2.2,1.9-3.5,2.4c-1.3,0.5-2.7,0.7-4,0.7
		c-3,0-5.4-1-7.2-3c-1.8-2-2.8-4.7-2.8-8c0-3.3,1-6,3-8c2-2,4.4-3,7.3-3c1.2,0,2.4,0.2,3.5,0.5s2,0.8,2.7,1.4V48
		c-0.9-0.8-1.9-1.4-2.9-1.8c-1-0.4-2.1-0.6-3.3-0.6c-2.2,0-4,0.8-5.4,2.3c-1.4,1.6-2.1,3.6-2.1,6.2s0.7,4.6,2,6.2
		C156,61.9,157.8,62.7,160,62.7z"/>
	<path d="M182.9,63.8c-0.6,0.5-1.3,0.8-2.1,1c-0.8,0.2-1.6,0.3-2.6,0.3c-2.2,0-4-0.7-5.4-2.1c-1.4-1.4-2-3.3-2-5.7
		c0-2.4,0.6-4.3,1.9-5.9c1.3-1.5,2.9-2.3,5-2.3c2.1,0,3.7,0.7,4.7,2.1c1.1,1.4,1.6,3.2,1.6,5.5v0.9h-10.6c0.1,1.8,0.6,3.1,1.6,4
		s2.2,1.3,3.6,1.3c0.9,0,1.6-0.1,2.3-0.3s1.4-0.6,2.1-1.1V63.8z M177.7,51.3c-1,0-1.9,0.3-2.7,1c-0.8,0.7-1.3,1.7-1.5,3.2h7.9
		c0-1.1-0.4-2.1-1-3C179.9,51.7,178.9,51.3,177.7,51.3z"/>
	<path d="M191.6,51.6v13.2H189V51.6h-3.2v-2.2h3.2v-4.1h2.6v4.1h3.6v2.2H191.6z"/>
	<path d="M209,44.7c0,0.4-0.2,0.8-0.5,1.2c-0.3,0.3-0.7,0.5-1.2,0.5c-0.4,0-0.8-0.2-1.2-0.5c-0.3-0.3-0.5-0.7-0.5-1.2
		c0-0.5,0.2-0.9,0.5-1.2c0.3-0.3,0.7-0.5,1.2-0.5c0.5,0,0.9,0.2,1.2,0.5C208.8,43.9,209,44.3,209,44.7z M208.6,49.4v15.4H206V49.4
		H208.6z"/>
	<path d="M217.6,51.6v13.2H215V51.6h-3.2v-2.2h3.2v-4.1h2.6v4.1h3.6v2.2H217.6z"/>
	<path d="M245,57.1c0,2.3-0.7,4.3-2,5.8c-1.3,1.5-3,2.3-5.1,2.3c-2.1,0-3.8-0.8-5.1-2.3c-1.3-1.5-2-3.4-2-5.8c0-2.3,0.7-4.3,2-5.8
		c1.3-1.5,3-2.3,5.1-2.3c2.1,0,3.8,0.8,5.1,2.3C244.4,52.8,245,54.8,245,57.1z M242.4,57.1c0-1.7-0.4-3-1.2-4.1
		c-0.8-1.1-1.9-1.6-3.3-1.6c-1.4,0-2.5,0.5-3.3,1.6c-0.8,1.1-1.2,2.4-1.2,4.1c0,1.7,0.4,3,1.2,4.1s1.9,1.6,3.3,1.6
		c1.4,0,2.5-0.5,3.3-1.6S242.4,58.8,242.4,57.1z"/>
	<path d="M248.6,64.8V49.4h2.6v1.9c0.4-0.6,1.1-1.1,1.9-1.6c0.8-0.5,1.7-0.7,2.7-0.7c1.7,0,3.1,0.5,4,1.6s1.4,2.4,1.4,4.1v10.1h-2.6
		v-9.7c0-1.1-0.3-1.9-0.8-2.6c-0.6-0.7-1.4-1-2.6-1c-0.9,0-1.7,0.3-2.4,0.8c-0.7,0.5-1.2,1.2-1.5,2.1v10.4H248.6z"/>
</g>
<path d="M121.3,87.7l-16.5-9.6l0,0L66.4,55.9c-0.2-0.1-0.4-0.2-0.6-0.2c-0.1,0-0.2,0-0.2-0.1c-0.2,0-0.3,0-0.5,0
	c-0.1,0-0.1,0-0.1,0.1c-0.2,0-0.4,0.1-0.6,0.2h-0.1c0,0-0.1,0-0.1,0.1l0,0c-0.2,0.1-0.4,0.3-0.5,0.5l-0.1,0.1l-0.1,0.1
	c-0.1,0.2-0.2,0.3-0.3,0.5c0,0,0,0.1-0.1,0.1l0,0C63,57.4,63,57.6,63,57.8v64.9c0,0.2,0.1,0.5,0.1,0.7c0,0.1,0.1,0.1,0.1,0.1
	c0.1,0.1,0.1,0.3,0.3,0.5l0.1,0.1c0,0,0,0.1,0.1,0.1l0,0c0.1,0.2,0.3,0.3,0.5,0.5l0.1,0.1c0,0,0.1,0.1,0.1,0.1
	c0.2,0.1,0.5,0.2,0.8,0.2l0,0c0.2,0,0.3-0.1,0.6-0.1c0.2,0,0.4-0.1,0.5-0.2L121,91.5c0.6-0.4,1-1.1,1-1.8
	C122.2,89,121.9,88.1,121.3,87.7z M82.9,109.6l-6.6,4l18.9-21.1l5.8,6.1L82.9,109.6z M67.5,63.1l25,26.4l-25,27.8V63.1L67.5,63.1z
	 M95.2,86.3L76.8,66.8l23.7,13.7L95.2,86.3z M104.7,96.4l-6.7-7.1l6.1-6.7l12,6.9L104.7,96.4z"/>
</svg>
