<svg id="Layer_1" xmlns="http://www.w3.org/2000/svg" width="100" height="100" viewBox="0 0 100 100"><style>.st0{fill:#34B3E7;}</style><path class="st0" d="M90 23c.6-2.1-.1-4.4-1.8-5.8-1-.8-2.2-1.2-3.4-1.2-1 0-1.9.2-2.8.8-1.7 1-3.5 1.8-5.3 2.4-3.6-2.7-8-4.2-12.5-4.2-10.4 0-19 7.7-20.3 17.7-8.3-1.8-15.8-6.3-21.2-13-1-1.3-2.6-2-4.2-2h-.4c-1.8.1-3.4 1.1-4.3 2.7C12 23.5 11 27 11 30.7c0 2.4.4 4.8 1.2 7-.8 1-1.3 2.2-1.4 3.5v.3c0 5.3 2 10.2 5.4 13.9-.2.9-.2 1.9.1 2.8 1.2 3.7 3.3 6.8 6.1 9.2-1.8.4-3.6.6-5.5.6-1 0-2-.1-3-.2h-.6c-2.3 0-4.3 1.4-5.1 3.6-.8 2.4.1 5 2.2 6.4 7.8 5 16.8 7.6 26 7.6 14.2 0 26.9-5.6 35.9-15.8 7.7-8.8 12.2-20.4 12.4-31.8 2.5-2.1 4.6-4.5 6.5-7.3.6-.9 1-2 1-3.2 0-1.7-.8-3.3-2.2-4.3zM79.3 35.2v1.9c0 20-15.1 42.9-42.9 42.9-8.5 0-16.4-2.5-23.1-6.8 1.2.1 2.4.2 3.6.2 7.1 0 13.6-2.4 18.7-6.4-6.6-.1-12.2-4.5-14.1-10.5.9.2 1.9.3 2.8.3 1.4 0 2.7-.2 4-.5-6.9-1.4-12.1-7.5-12.1-14.8v-.2c2 1.1 4.4 1.8 6.8 1.9-4-2.7-6.7-7.3-6.7-12.5 0-2.8.7-5.4 2-7.6 7.4 9.1 18.5 15.1 31.1 15.7-.2-1.1-.4-2.2-.4-3.4 0-8.3 6.7-15.1 15.1-15.1 4.3 0 8.2 1.8 11 4.8 3.4-.7 6.7-1.9 9.6-3.7-1.1 3.5-3.5 6.5-6.6 8.3 3-.4 5.9-1.2 8.7-2.4-2 3.1-4.6 5.8-7.5 7.9z"/></svg>