<?xml version="1.0" encoding="utf-8"?>
<!-- Generator: Adobe Illustrator 19.2.1, SVG Export Plug-In . SVG Version: 6.00 Build 0)  -->
<svg version="1.1" id="Layer_1" xmlns="http://www.w3.org/2000/svg" xmlns:xlink="http://www.w3.org/1999/xlink" x="0px" y="0px"
	 viewBox="0 0 100 100" style="enable-background:new 0 0 100 100;" xml:space="preserve">
<style type="text/css">
	.st0{fill:#010101;}
</style>
<path class="st0" d="M78.2,21.6C70.7,14.1,60.8,10,50.2,10c-21.9,0-39.7,17.8-39.7,39.7c0,7,1.8,13.8,5.3,19.8L10.2,90l21-5.5
	c5.8,3.2,12.3,4.8,19,4.8h0l0,0c21.9,0,39.7-17.8,39.7-39.7C89.8,39.1,85.7,29.1,78.2,21.6L78.2,21.6z M50.2,82.7L50.2,82.7
	c-5.9,0-11.7-1.6-16.8-4.6l-1.2-0.7l-12.5,3.3L23,68.4l-0.8-1.3c-3.3-5.2-5-11.3-5-17.5c0-18.2,14.8-33,33-33
	c8.8,0,17.1,3.4,23.3,9.7c6.2,6.2,9.6,14.5,9.6,23.3C83.1,67.9,68.3,82.7,50.2,82.7L50.2,82.7z M68.2,57.9c-1-0.5-5.9-2.9-6.8-3.2
	c-0.9-0.3-1.6-0.5-2.2,0.5c-0.7,1-2.6,3.2-3.1,3.9c-0.6,0.7-1.2,0.8-2.1,0.3c-1-0.5-4.2-1.5-8-4.9c-2.9-2.6-4.9-5.9-5.5-6.9
	c-0.6-1-0.1-1.5,0.4-2c0.5-0.4,1-1.2,1.5-1.7c0.5-0.6,0.7-1,1-1.7c0.3-0.7,0.2-1.2-0.1-1.7s-2.2-5.4-3-7.4c-0.8-1.9-1.6-1.7-2.2-1.7
	c-0.6,0-1.2,0-1.9,0s-1.7,0.3-2.6,1.2c-0.9,1-3.5,3.4-3.5,8.3s3.5,9.6,4,10.3c0.5,0.7,7,10.7,16.9,15c2.4,1,4.2,1.6,5.6,2.1
	c2.4,0.8,4.5,0.6,6.2,0.4c1.9-0.3,5.9-2.4,6.7-4.7c0.8-2.3,0.8-4.3,0.6-4.7C69.9,58.7,69.3,58.4,68.2,57.9L68.2,57.9z"/>
</svg>
