<?xml version="1.0" standalone="no"?>
<!DOCTYPE svg PUBLIC "-//W3C//DTD SVG 1.1//EN" "http://www.w3.org/Graphics/SVG/1.1/DTD/svg11.dtd">
<svg xmlns="http://www.w3.org/2000/svg">
<metadata>Copyright (C) 2016 by original authors @ fontello.com</metadata>
<defs>
<font id="svgcss-generator" horiz-adv-x="1000" >
<font-face font-family="svgcss-generator" font-weight="400" font-stretch="normal" units-per-em="1000" ascent="850" descent="-150" />
<missing-glyph horiz-adv-x="1000" />
<glyph glyph-name="android" unicode="&#xe800;" d="M390-126c-3 1-6 2-10 3-26 6-38 22-38 49 0 40 0 81 0 121 0 5 0 9-1 15-12 0-23 0-34 0-35 0-65 27-65 62-1 132 0 264 0 396 0 2 1 3 2 5 171 0 342 0 515 0 0-5 1-11 1-16 0-124-1-249 0-373 0-44-32-78-75-74-8 1-17 0-27 0 0-24 0-46 0-68 0-22 0-45 0-67 0-30-12-45-42-51-2-1-5-2-7-3-2 0-4 0-6 0-2 1-5 2-7 2-32 7-43 21-43 53 0 27 0 53 0 80 0 17 0 34 0 51-35 0-69 0-104 0 0-5 0-11 0-15 0-41-1-82 0-122 1-26-18-40-36-46-4-1-8-2-13-4-4 2-7 2-10 2z m275 952c7-6 6-12 1-19-13-18-25-38-38-57 81-37 122-100 130-188-173 0-344 0-516 0-1 51 29 144 128 188-12 18-25 38-38 56-5 7-6 13 0 20 3 0 6 0 9 0 15-23 31-47 46-70 73 20 145 22 216 2 4-1 11 3 14 7 15 20 28 40 42 61 2 0 4 0 6 0z m-55-191c16 0 28 13 28 29 0 15-13 28-28 28-15 0-29-13-29-28-1-17 13-30 29-29z m-222-1c16 0 29 12 28 28 0 15-12 28-28 28-16 1-29-12-30-28 1-15 14-27 30-28z m-292-147c16 29 38 40 68 33 25-5 38-22 38-47 0-80 0-160 0-241 0-28-10-42-35-49-26-7-53 2-65 22-2 3-4 5-6 8 0 92 0 183 0 274z m809-273c-20-31-48-41-78-28-18 8-28 21-28 42 1 81 0 161 0 242 0 28 12 44 36 50 28 7 55-4 66-26 1-2 2-5 4-7 0-91 0-182 0-273z" horiz-adv-x="1000" />

<glyph glyph-name="app-store" unicode="&#xe801;" d="M2649-147h-2506c-61 0-110 49-110 110v772c0 60 49 109 110 109h2507c61 0 110-49 110-110v-771c0-61-50-110-111-110z m-2506 964c-45 0-82-37-82-83v-771c0-46 37-83 82-83h2507c45 0 82 37 82 83v772c0 45-37 82-82 82h-2507z m915-422l81-213h-45l-18 51h-80l-19-51h-45l82 213h44z m-49-125h53l-26 71-27-71z m198-146h-44v213h44v-13c3 5 8 8 15 11 7 4 15 5 23 5 12 0 22-2 30-6 9-5 17-11 23-18 6-7 10-16 14-26 3-10 4-20 4-31 0-11-2-21-4-31-4-10-8-19-14-26-6-8-14-14-23-18-8-5-18-7-30-7-8 0-16 2-23 5-7 3-12 7-15 11v-69z m0 110c2-6 6-10 11-13 6-3 11-5 17-5 12 0 22 4 28 12 6 9 10 18 10 31s-4 23-10 31c-7 9-16 13-28 13-6 0-12-2-17-5-5-4-9-8-12-13v-51z m180-110h-43v213h43v-13c3 5 9 8 16 11 7 4 15 5 23 5 11 0 22-2 30-6 9-5 16-11 22-18 6-7 11-16 14-26 3-10 4-20 4-31 0-11-1-21-4-31-3-10-8-19-14-26-6-8-13-14-22-18-9-5-19-7-30-7-8 0-16 2-23 5-8 3-13 7-16 11v-69z m0 110c2-6 6-10 11-13 6-3 11-5 17-5 12 0 21 4 28 12 6 9 10 18 10 31s-4 23-10 31c-7 9-16 13-28 13-6 0-12-2-17-5-5-4-9-8-12-13v-51z m204 6c10-7 21-13 33-17 11-5 23-7 36-7 11 0 20 2 27 6 7 3 10 9 10 17 0 7-2 12-6 16-5 3-11 6-19 9l-31 11c-7 3-15 5-21 9-7 3-13 7-17 12-4 5-8 11-11 18-2 6-3 14-3 23 0 10 2 19 6 26 4 8 9 14 16 19s15 9 24 12c9 2 19 4 29 4 13 0 25-2 36-5 10-3 20-7 29-12v-43c-10 6-19 12-29 16-10 4-22 6-34 6-10 0-18-2-24-5-6-4-10-9-10-16 0-7 3-12 7-15s10-6 17-9l33-11c18-6 31-14 40-24s12-24 12-39c0-11-2-19-6-28s-10-14-18-20-16-9-25-11c-10-3-21-4-32-4-14 0-27 1-39 5-12 4-22 8-30 13v44z m239-58h-43v120h-30v34h30v43h43v-43h33v-34h-33v-120z m199 77c0-11-2-22-6-32-4-10-9-19-15-26-7-7-15-13-24-17-9-4-19-6-31-6-11 0-22 2-31 6-10 4-17 10-24 17-7 7-12 16-16 26-4 10-5 21-5 32 0 12 1 23 5 33 4 10 9 18 16 26 7 7 14 12 24 16 9 4 19 6 31 6 11 0 22-2 31-6 9-4 17-9 24-16 6-8 11-16 15-26 4-10 6-21 6-33z m-43 0c0 14-3 24-8 32-6 9-14 13-25 13-11 0-19-5-25-13-6-8-8-18-8-32 0-13 2-23 8-32 5-8 14-12 25-12 11 0 19 4 25 12 5 8 8 19 8 32z m165 35c-7 4-14 5-22 5-7 0-14-1-19-5-6-4-9-9-11-16v-96h-43v155h43v-16c4 6 8 10 14 14 6 3 13 5 21 5 4 0 7-1 10-1 3-1 5-1 6-2v-43z m55-45c2-12 7-21 15-27 8-5 18-8 29-8 9 0 17 1 23 3 7 2 14 6 22 11v-36c-7-4-14-8-23-10-8-2-18-3-28-3-12 0-23 1-32 5s-19 9-25 16c-8 7-13 16-16 25-4 10-6 21-6 34 0 12 2 23 6 33 3 10 8 19 15 26 6 7 14 13 23 17 9 4 19 6 29 6 11 0 21-2 30-6 8-4 15-9 21-15 5-7 10-15 13-25 2-9 4-20 4-31v-14h-100z m32 57c-7 0-13-2-19-7-5-4-9-11-12-21h59c-1 8-3 15-8 20-4 5-11 8-20 8z m-1297 184v119h39c17 0 31-6 41-17 11-10 16-25 16-43 0-18-5-32-16-43-10-11-24-16-41-16h-39z m15 14h23c13 0 24 3 31 12 8 8 11 19 11 33 0 14-4 25-11 33-8 9-18 13-31 13h-23v-91z m174 29c0-13-4-24-11-32-7-9-17-13-28-13-12 0-22 4-29 13-7 8-11 19-11 32 0 13 4 24 11 32 7 9 17 13 29 13 11 0 21-4 28-13 7-8 11-19 11-32z m-14 0c0 9-3 17-7 23-5 6-11 9-18 9-8 0-14-3-19-9-4-6-6-14-6-23 0-9 2-17 6-23s11-9 19-9c7 0 13 3 18 9s7 14 7 23z m88 43l18-66 19 66h14l-25-86h-14l-18 65-17-65h-14l-25 86h14l19-66 18 66h11z m67-86v86h14v-11c3 4 7 6 11 9 4 3 9 4 15 4 9 0 17-3 22-9 5-5 8-13 8-23v-56h-14v54c0 6-2 11-5 15-3 3-8 5-14 5-5 0-10-2-14-4-4-3-6-7-8-12v-58h-15z m109 126v-126h-15v126h15z m98-83c0-13-4-24-11-32-7-9-17-13-28-13-12 0-21 4-29 13-7 8-11 19-11 32 0 13 4 24 11 32 8 9 17 13 29 13 11 0 21-4 28-13 7-8 11-19 11-32z m-14 0c0 9-3 17-7 23-4 6-11 9-18 9-8 0-14-3-19-9-4-6-6-14-6-23 0-9 2-17 6-23 5-6 11-9 19-9 7 0 14 3 18 9s7 14 7 23z m81 3v11c0 5-1 9-5 12-4 3-9 5-15 5-5 0-9-1-13-3-4-1-8-3-11-5v14c3 2 7 4 12 5 5 1 10 2 15 2 10 0 17-3 23-8 6-5 9-12 9-22v-58h-14v6c-2-1-5-3-8-5-4-1-9-3-14-3-9 0-16 3-22 8-6 5-9 11-9 20 0 7 3 14 9 19 6 5 14 7 23 7 5 0 9 0 13-2s6-2 7-3z m0-25v9c-1 4-4 6-7 8-4 2-8 3-12 3-5 0-10-1-14-4-4-2-6-6-6-11s2-9 6-11c4-3 9-4 14-4 4 0 9 1 12 3 4 1 6 4 7 7z m96-21v10c-2-3-6-5-10-8-4-2-9-3-14-3-12 0-22 4-29 13-7 9-10 19-10 31 0 12 3 22 10 31 7 9 16 13 29 13 5 0 10-1 14-3 5-2 8-5 10-8v50h14v-126h-14z m0 26v34c-2 5-6 8-10 11-4 3-8 4-12 4-9 0-15-3-20-9-4-6-7-14-7-22 0-9 2-17 7-23 5-6 11-9 20-9 4 0 8 2 12 4 4 2 8 5 10 10z m155 17c0-13-4-24-11-32-8-9-17-13-29-13-11 0-21 4-28 13-7 8-11 19-11 32 0 13 4 24 11 32 7 9 17 13 28 13 12 0 21-4 29-13 7-8 11-19 11-32z m-15 0c0 9-2 17-6 23-5 6-11 9-19 9-7 0-14-3-18-9-4-6-7-14-7-23 0-9 3-17 7-23 4-6 11-9 18-9 8 0 14 3 19 9s6 14 6 23z m35-43v86h14v-11c2 4 6 6 11 9 4 3 9 4 15 4 9 0 17-3 22-9s8-13 8-23v-56h-15v54c0 6-1 11-4 15-4 3-8 5-15 5-5 0-9-2-13-4-4-3-7-7-8-12v-58h-15z m161 74v-74h-15v74h-17v12h17v23h15v-23h20v-12h-20z m37-74v126h14v-51c3 4 6 6 11 9 4 3 9 4 15 4 9 0 17-3 22-9 5-5 8-13 8-23v-56h-15v54c0 6-1 11-4 15-3 3-8 5-14 5-5 0-10-2-14-4-4-3-6-7-8-12v-58h-15z m155 6c-3-3-7-5-11-6-5-1-9-1-15-1-12 0-22 3-30 11-7 8-11 19-11 32 0 13 4 24 11 33 7 8 16 12 28 12 11 0 20-3 26-11 6-8 9-18 9-31v-5h-59c0-10 3-17 9-22 5-5 12-7 20-7 5 0 8 0 12 1 4 2 8 4 12 7v-13z m-28 69c-6 0-11-1-15-5-5-4-8-10-9-18h44c0 6-2 12-5 17-4 4-9 6-15 6z m-1494-90c30-3 58-19 74-44-26-15-43-43-44-75 0-35 23-66 56-78 0 0-44-103-93-103-28 0-29 15-66 15-31 0-43-15-66-15-47 0-107 100-107 181 0 85 61 119 99 119 33 0 47-20 74-20 22 0 40 20 73 20z m-7 86c6-41-31-92-77-91-6 52 42 88 77 91l0 0z" horiz-adv-x="2792" />

<glyph glyph-name="arrow-down" unicode="&#xe802;" d="M500 113l-395 395 72 73 323-323 323 323 72-73-395-395z" horiz-adv-x="1000" />

<glyph glyph-name="arrow-left" unicode="&#xe803;" d="M266 350l395 395 73-72-323-323 323-323-73-72-395 395z" horiz-adv-x="1000" />

<glyph glyph-name="arrow-right-circle" unicode="&#xe804;" d="M500-133c-266 0-483 217-483 484 0 265 216 482 483 482 265 0 483-216 483-482 0-267-217-484-483-484z m0 929c-246 0-446-200-446-445 0-246 200-447 447-447 245 0 446 200 446 447-1 245-201 445-447 445z m-95-595c-6 0-11 2-15 7-6 8-4 19 4 26l161 117-161 116c-8 6-10 18-5 26 6 8 18 10 26 5l181-131c5-4 8-9 8-15 0-5-3-11-8-14l-180-134c-4-3-7-3-11-3z" horiz-adv-x="1000" />

<glyph glyph-name="arrow-right" unicode="&#xe805;" d="M734 350l-395-395-73 72 323 323-323 323 73 72z" horiz-adv-x="1000" />

<glyph glyph-name="arrow-up" unicode="&#xe806;" d="M500 581l395-395-72-73-323 323-323-323-72 73 395 395z" horiz-adv-x="1000" />

<glyph glyph-name="bel" unicode="&#xe807;" d="M250 548l130-124-32-38c-8-9-14-26 0-57 28-61 125-148 179-148 11 0 20 4 27 11 1 1 2 2 2 3 2 5 16 19 30 33l130-124c-22-22-30-31-33-36l-3-3c-15-13-35-32-72-32-62 0-148 52-256 155-228 215-166 291-140 323l1 1c6 3 15 13 37 36m0 40c-11 0-21-4-29-12l-9-9c-8-9-16-17-20-20-3-2-6-4-8-6l-1-1-3-3c-15-19-47-58-33-126 14-70 72-152 177-251 117-112 210-166 283-166 50 0 79 25 96 40l2 2 2 2 3 3c2 2 4 5 6 7 2 2 7 9 27 29 8 8 12 18 12 29 0 11-5 21-12 28l-130 124c-8 7-18 11-28 11-10 0-20-4-28-12-17-17-27-27-33-35-34 3-117 72-141 125-4 9-5 14-5 16l31 37c14 16 12 40-3 55l-130 124c-7 6-16 9-26 9z m605-302c-11 0-20 9-20 20 0 200-162 362-362 362-11 0-20 9-20 20s9 20 20 20c222 0 402-180 402-402 0-11-9-20-20-20z m-121-27c-11 0-20 9-20 20 0 147-119 266-266 266-11 0-20 9-20 20s9 20 20 20c169 0 306-137 306-306 0-11-9-20-20-20z" horiz-adv-x="1000" />

<glyph glyph-name="check" unicode="&#xe808;" d="M323 65c-16 0-38 5-54 16-32 22-54 54-54 92l0 317c0 59 48 107 108 107 0 0 0 0 0 0 59 0 107-48 107-107l0-124 753 457c48 32 118 16 145-37 32-54 16-119-38-151l-914-554c-10-11-32-16-53-16z" horiz-adv-x="1511" />

<glyph glyph-name="chromecast" unicode="&#xe809;" d="M964 50c-2 0-3 0-5 0-169 0-339 0-508 0-4 0-6 1-7 6-6 21-12 42-18 63 0 1-1 2-1 4 156 0 311 0 466 0 0 170 0 339 0 509-242 0-484 0-727 0 0-83 0-165 0-248-10 3-18 7-28 9-14 4-28 7-42 11-2 1-4 1-4 4 0 99 0 197 0 296 0 0 0 1 0 1 291 0 582 0 873 0 1-218 1-437 1-655z m-928 307c32-3 64-9 94-20 131-48 216-139 256-273 6-22 10-44 12-66 0-1 0-2 0-4-24 0-48 0-72 0-1 9-2 18-4 27-25 125-119 225-242 255-14 4-29 5-44 8 0 25 0 49 0 73z m0-128c58-8 109-32 152-73 43-41 69-91 80-148 1-4 1-8 1-12-24 0-48 0-72 0 0 1-1 3-1 4-8 38-25 71-52 98-30 31-66 50-108 58 0 24 0 49 0 73z m0-129c24-7 45-18 64-35 19-18 32-39 39-64 0-2 1-3 1-5-35 0-69 0-104 0 0 34 0 69 0 104z" horiz-adv-x="1000" />

<glyph glyph-name="close" unicode="&#xe80a;" d="M582 352l305-305-84-84-305 305-306-305-84 84 305 305-305 306 84 84 306-305 305 305 84-84" horiz-adv-x="1000" />

<glyph glyph-name="email" unicode="&#xe80b;" d="M789 503v129h-161l-131 105-131-105h-161v-129l-97-78v-472h779v472l-98 78z m47-88l-47-37v75l47-38z m-339 271l67-54h-134l67 54z m-252-94h504v-247l-252-202-252 202v247z m-40-140v-75l-47 37 47 38z m641-459h-699v379l57-46 292-234 292 234 57 46v-379z m-272 452c0-10-2-19-5-27-3-8-7-15-12-21-5-6-10-12-15-17s-10-10-15-16c-4-5-8-11-11-17-3-6-4-13-3-20h-44c-1 8 0 16 2 23 2 7 5 13 9 19 4 6 8 12 13 17s9 11 14 16c4 5 8 11 11 17 3 6 4 12 4 19 0 11-3 19-10 25s-16 8-29 8c-18 0-32-1-44-2v34c7 2 16 3 24 4 9 1 17 1 25 1 15 0 27-2 38-5s20-8 27-13c7-6 12-12 15-20s6-15 6-25z m-55-166c0-8-3-15-8-20-6-6-12-8-20-8s-15 3-20 8c-6 6-8 12-8 20s3 15 8 20c6 6 12 8 20 8s15-3 20-8c6-5 8-12 8-20z" horiz-adv-x="1000" />

<glyph glyph-name="facebook" unicode="&#xe80c;" d="M688 546v104c0 28-23 51-51 51h-92c-57 0-102-16-134-48-20-20-45-58-44-118v-32h-9c-28 0-51-23-51-51v-101c0-28 23-51 51-51h9v-248c0-28 23-51 51-51h124c28 0 51 23 51 51v249h32c25 0 46 18 51 43 0 2 8 51 12 106 1 14-4 28-14 39-5 5-10 9-16 12 18 6 30 24 30 45z m-51 0h-68c-13 0-27-14-27-24v-69h94c-4-53-12-101-12-101h-83v-299h-123v299h-60v100h60v82c0 16-3 116 127 116h92v-104z" horiz-adv-x="1000" />

<glyph glyph-name="facebook2" unicode="&#xe80d;" d="M713 508h-144v94c0 35 23 44 40 44 16 0 101 0 101 0v155l-140 1c-155 0-190-116-190-190v-104h-90v-160h90c0-206 0-454 0-454h189c0 0 0 251 0 454h127l17 160z" horiz-adv-x="1000" />

<glyph glyph-name="forum" unicode="&#xe80e;" d="M955 350c0 159-130 288-289 288-94 0-178-45-230-115-42 37-96 60-156 60-130 1-235-104-235-233 0-40 10-79 30-114l-22-112 112 21c35-19 74-30 114-30 60 0 115 23 157 60 53-70 136-114 230-114 50 0 99 13 142 37l136-26-26 136c24 44 37 92 37 142z m-676-204c-36 0-72 10-103 28l-5 3-79-15 15 79-3 5c-18 32-28 67-28 104 0 112 91 203 203 203 54 0 103-21 139-55-26-43-41-94-41-148s15-105 41-148c-36-35-85-56-139-56z m523-15l-5-3c-40-23-85-36-131-36-85 0-161 42-208 106-3 4-6 9-9 13-3 5-6 9-9 14-20 37-32 79-32 124s11 87 32 124c3 5 5 10 8 14 3 4 6 9 9 13 47 64 123 106 209 106 142 0 258-116 258-258 0-46-12-91-36-131l-3-5 20-103-103 22z m-471 269c0-8-1-15-4-21-2-6-5-11-9-16s-7-9-12-13c-4-4-8-8-11-12-3-4-6-9-8-13-2-5-3-10-3-15h-34c-1 6 0 12 1 18 2 5 4 10 7 15 3 5 6 9 10 13s7 8 11 12c3 4 6 8 8 13 2 4 3 9 3 15 0 9-3 15-8 19-5 4-13 6-22 6-14 0-25-1-34-2v26c6 1 12 3 19 3 7 1 13 1 19 1 11 0 21-1 29-4s15-6 21-10c5-4 9-10 12-16 4-5 5-12 5-19z m-42-128c0-6-2-11-7-16-4-4-10-7-16-7s-11 2-16 7c-4 4-7 10-7 16 0 6 2 11 7 16 4 4 10 7 16 7s11-2 16-7c5-5 7-10 7-16z m259 126v27h250v-27h-250z m0-62v27h250v-27h-250z m0-61v27h250v-27h-250z" horiz-adv-x="1000" />

<glyph glyph-name="google" unicode="&#xe80f;" d="M911 421h-128v128c0 10-8 18-18 18h-37c-10 0-18-8-18-18v-128h-127c-10 0-18-8-18-18v-37c0-10 8-18 18-18h128v-128c0-10 8-18 18-18h37c10 0 18 8 18 18v129h128c10 0 18 8 18 18v37c-1 9-9 17-19 17z m-431-112c-27 19-51 47-52 56 0 16 1 23 37 51 45 36 70 82 70 132 0 45-14 85-37 113h18c4 0 7 1 10 3l50 37c6 4 9 12 7 20-2 7-9 12-17 12h-225c-25 0-50-4-74-13-82-28-140-98-140-170 0-102 79-179 184-182-2-8-3-16-3-24 0-16 4-31 12-45-1 0-2 0-3 0-101 0-191-49-226-123-9-19-14-38-14-57 0-19 5-36 14-53 22-39 68-69 131-85 32-8 67-12 104-12 33 0 64 4 92 12 89 26 147 92 147 168 1 72-22 115-85 160z m-285-167c0 53 67 100 144 100h2c17 0 33-3 48-7 5-4 10-7 15-10 36-24 59-40 66-66 2-6 2-13 2-19 0-66-49-100-146-100-73-1-131 44-131 102z m70 501c12 14 28 21 45 21l2 0c50-1 98-57 106-124 5-37-3-73-22-94-12-14-28-21-46-21 0 0 0 0 0 0h0c-49 2-98 59-106 126-5 37 2 71 21 92z" horiz-adv-x="1000" />

<glyph glyph-name="info" unicode="&#xe810;" d="M500 850c-276 0-500-224-500-500s224-500 500-500 500 224 500 500-224 500-500 500z m0-938c-241 0-437 197-437 438s196 438 437 438 438-197 438-438-197-438-438-438z m0 563c-34 0-62-28-62-62v-313c0-34 28-62 62-62s63 28 63 62v313c0 34-28 62-63 62z m0 63c35 0 63 28 63 62s-28 63-63 63-62-28-62-63 28-62 62-62z" horiz-adv-x="1000" />

<glyph glyph-name="ios" unicode="&#xe811;" d="M109 289c0 14 0 27 0 41 2 13 3 25 5 38 9 62 32 118 78 162 56 53 122 77 199 60 28-6 54-18 81-28 24-9 47-9 71 0 15 6 30 11 45 17 56 23 112 26 170 6 45-15 82-42 109-82-153-96-129-311 25-378 0-3 0-7 0-10-1-2-2-3-3-5-20-56-49-107-85-155-29-39-61-75-111-86-11 0-22 0-33 0-26 9-52 19-77 28-40 14-80 15-120 1-26-9-52-19-79-29-15 0-29 0-43 0-29 10-53 27-73 49-78 86-128 185-149 298-4 24-7 48-10 73z m583 542c6-41-4-78-23-114-31-58-77-97-144-107-7-1-15-1-23-1-4 24-1 46 6 68 28 84 84 135 170 153 2 0 3 2 4 2 3-1 7-1 10-1z" horiz-adv-x="1000" />

<glyph glyph-name="krassen" unicode="&#xe812;" d="M872-82l341 845-1174-664-8 13 1213 687-337-834 1018 783-284-731 495 327 9-13-536-353 281 724-1018-784z" horiz-adv-x="2176" />

<glyph glyph-name="linkedin" unicode="&#xe813;" d="M266-50l0 529-163 0 0-529 163 0z m0 717c-1 47-32 83-83 83-51 0-85-36-85-83 0-47 32-84 83-84l1 0c52 0 84 37 84 84z m267-717l0 302c0 16 1 32 6 44 13 32 42 66 92 66 65 0 106-37 106-109l0-303 165 0 0 310c0 166-88 243-206 243-97 0-139-54-163-91l1 71-165 0c2-51 0-532 0-532l164 0z" horiz-adv-x="1000" />

<glyph glyph-name="mail" unicode="&#xe814;" d="M603 321l296-253c-11-10-25-16-41-16l-716 0c-16 0-31 6-41 16l296 254 103-91 103 90z m-103-31l-399 342c11 10 25 16 41 16l716 0c16 0 31-6 41-16l-399-342z m418-190l-289 245 289 251 0-496 0 0z m-836 0l0 496 289-251-289-245 0 0z" horiz-adv-x="1000" />

<glyph glyph-name="pdf" unicode="&#xe815;" d="M306 377c-7 6-18 10-32 10h-20v-78h21c14 0 24 4 31 11 7 7 10 17 10 30 0 11-3 20-10 27z m251-41c-3 10-7 19-13 26s-14 14-24 18c-9 4-21 7-34 7h-31v-166h31c12 0 23 2 33 6 9 4 17 10 24 17s11 16 15 26c3 10 5 21 5 34-2 11-3 22-6 32z m-251 41c-7 6-18 10-32 10h-20v-78h21c14 0 24 4 31 11 7 7 10 17 10 30 0 11-3 20-10 27z m251-41c-3 10-7 19-13 26s-14 14-24 18c-9 4-21 7-34 7h-31v-166h31c12 0 23 2 33 6 9 4 17 10 24 17s11 16 15 26c3 10 5 21 5 34-2 11-3 22-6 32z m250 132h-20v95 2c0 4-1 8-4 10l-157 180-3 3s-1 0-1 1c-1 1-2 1-3 1h-392c-18 0-32-14-32-32v-260h-20c-25 0-46-20-46-46v-238c0-25 20-46 46-46h20v-163c0-18 14-32 32-32h528c18 0 32 14 32 32v164h20c25 0 46 20 46 46v237c0 26-21 46-46 46z m-580 260h371v-164c0-9 7-16 16-16h141v-80h-528v260z m385-421c0-19-3-36-9-52-6-15-15-28-26-39s-25-19-41-25c-16-6-34-9-54-9h-76v242h86c18 0 35-2 50-7 15-5 27-12 38-22 10-10 18-22 24-37 5-15 8-32 8-51z m-407-124v241h73c29 0 51-6 66-18 16-12 23-30 23-55 0-27-8-47-25-61-17-14-39-21-69-21h-20v-87h-48z m550-198h-528v154h528v-154z m40 401h-86v-64h77v-38h-77v-101h-48v241h134v-38z m-251-24c-6 8-14 14-24 18-9 4-21 7-34 7h-31v-166h31c12 0 23 2 33 6 9 4 17 10 24 17s11 16 15 26c3 10 5 21 5 34 0 11-1 22-4 32-5 10-9 19-15 26z m-238-43c7 7 10 17 10 30 0 12-4 21-10 28-7 6-18 10-32 10h-20v-78h21c14-1 24 3 31 10z m0 58c-7 6-18 10-32 10h-20v-78h21c14 0 24 4 31 11 7 7 10 17 10 30 0 11-3 20-10 27z m0 0c-7 6-18 10-32 10h-20v-78h21c14 0 24 4 31 11 7 7 10 17 10 30 0 11-3 20-10 27z" horiz-adv-x="1000" />

<glyph glyph-name="play-button" unicode="&#xe816;" d="M224 707c5 0 9 0 14-5l652-338c20-9 20-23 0-33l-719-333c-4-5-4-5-9-5-14 0-19 9-19 24l62 666c0 15 9 24 19 24z m0 143c-86 0-157-67-162-152l-62-667c-5-48 10-95 43-129 28-33 71-52 119-52 24 0 52 5 76 19l714 338c58 29 96 81 96 143s-34 119-91 148l-652 333c-24 14-53 19-81 19z" horiz-adv-x="1063" />

<glyph glyph-name="play-button2" unicode="&#xe817;" d="M1345 376c26-14 25-36-1-48l-1023-491c-26-12-46 1-43 30l85 967c3 29 27 42 53 29l929-487z" horiz-adv-x="1714" />

<glyph glyph-name="play-logo" unicode="&#xe818;" d="M907 319l-53 31 53 30c25 15 39 40 39 67 0 28-15 53-39 67l-524 303c-24 14-53 14-77 0s-39-39-39-67v-61l-53 30c-24 15-53 15-77 0s-38-39-38-67v-605c0-28 15-54 38-67 13-7 26-11 39-11 14 0 27 4 39 11l53 30v-61c0-28 15-53 39-67 12-7 25-10 38-10s27 3 39 10l524 303c25 14 39 39 39 67-1 28-15 53-40 67l0 0z m-31-79l-525-303c-5-3-11-1-14 0-2 2-6 5-6 12v537c0 11-6 22-16 28-21 12-47-4-47-28v-402l-84-49c-6-4-12-2-14 0-3 2-7 5-7 12v605c0 7 4 11 7 12 2 2 7 3 14 0l465-269c10-5 22-5 31 0 22 12 22 43 0 55l-349 202v98c0 6 4 10 6 11 3 2 8 4 14 0l525-302c5-4 6-9 6-12 0-3-1-8-6-12l-85-49-64-36h0l-317-183c-10-6-15-17-15-28 0-25 26-39 47-27l349 202 85-50c6-3 7-8 7-11 0-4-1-9-7-13l0 0z m918-205l5 27c7-3 25-7 45-7 25 0 48 7 66 55l17 46-110 293h38l92-254 93 254h35l-131-349c-23-60-53-76-94-76-27 1-46 6-56 11l0 0z m-629 509h-92l0-407h36v163h55c91 0 154 41 154 123 1 81-61 121-153 121z m-4-213h-52v183h52c72 0 120-24 120-91 0-68-48-92-120-92z m208-150v381h35v-377c0-11 3-18 17-18h33v-28c-10-2-30-2-37-2-35 0-48 13-48 44l0 0z m365-14c-14 0-17 7-17 18v148c0 51-25 103-109 103-28 0-69-6-104-35l15-25c28 21 54 30 84 30 59 0 79-35 79-82v-30c-17 5-39 8-64 8-71 0-128-25-128-90h0c0-43 25-81 87-81 28 0 60 8 93 35l13 11c1-27 14-40 47-40 7 0 27 1 37 2v28h-33z m-51 40l-22-16c-28-22-52-31-79-31-43 0-56 22-56 50 0 49 41 62 97 62 22 0 43-2 60-6v-59z" horiz-adv-x="2174" />

<glyph glyph-name="play-logo2" unicode="&#xe819;" d="M852 322l-49 28 49 28c22 13 35 36 35 61 0 26-13 48-35 61l-480 277c-22 13-48 13-71 0s-35-36-35-61v-56l-48 28c-22 13-48 13-71 0s-35-36-35-61v-555c0-26 13-48 35-61 11-6 23-10 35-10 12 0 24 3 35 10l48 28v-56c0-26 13-48 35-61 11-6 23-10 35-10 12 0 24 3 35 10l480 277c22 13 35 36 35 61 3 26-11 49-33 62l0 0z m-29-72l-480-277c-5-3-10-2-13 0-2 2-6 5-6 11v491c0 10-6 20-14 25-19 11-43-3-43-25v-369l-77-45c-5-3-10-2-13 0-2 2-6 5-6 11v555c0 6 4 10 6 11 2 2 7 3 13 0l426-246c9-5 20-5 29 0 19 11 19 39 0 50l-320 185v90c0 6 4 10 6 11 2 2 7 3 13 0l480-277c5-3 6-8 6-11 0-3-1-8-6-11l-78-45-59-34h0l-290-168c-9-5-14-15-14-25 0-23 24-36 43-25l320 185 78-45c5-3 6-8 6-11-1-3-1-8-7-11l0 0z" horiz-adv-x="1000" />

<glyph glyph-name="play-store" unicode="&#xe81a;" d="M2644-147h-2506c-61 0-111 49-111 110v772c1 60 50 109 111 109h2506c61 0 111-49 111-110v-771c0-61-50-110-111-110z m-2506 964c-46 0-82-37-82-82v-772c0-45 37-83 82-83h2507c45 0 82 38 82 83v772c0 45-37 82-82 82h-2507z m804-599c6 0 13 1 19 2 6 2 12 5 16 9v32h-36v37h76v-90c-10-10-22-18-35-23-14-5-27-7-41-7-16 0-31 2-44 7-13 6-24 13-34 23-8 10-16 21-21 35-5 13-7 28-7 44 0 17 3 32 8 45 6 13 13 25 23 35s21 17 35 23c13 5 28 8 44 8 12 0 23-2 33-5 11-3 20-7 28-13v-44c-9 7-18 12-28 16-10 4-21 6-33 6-10 0-19-2-27-5-7-4-15-8-20-14-6-6-10-14-13-23s-5-18-5-28 2-20 5-29c2-8 7-16 12-22 5-6 11-11 19-14 8-4 16-5 26-5z m255 41c0-11-2-22-5-32-4-10-9-19-16-26-7-7-14-13-24-17-9-4-19-6-31-6-11 0-22 2-31 6-9 4-17 10-24 17-7 7-12 16-15 26-4 10-6 21-6 32 0 12 2 23 6 33 3 10 8 18 15 26 7 7 15 12 24 16 9 4 19 6 31 6 11 0 22-2 31-6 10-4 17-9 24-16 7-8 12-16 16-26 3-10 5-21 5-33z m-43 0c0 14-2 24-8 32-5 9-14 13-25 13-11 0-19-5-25-13-5-8-8-18-8-32 0-13 3-23 8-32 6-8 14-12 25-12 11 0 19 4 25 12 6 8 8 19 8 32z m214 0c0-11-1-22-5-32-4-10-9-19-16-26-7-7-14-13-24-17-9-4-19-6-31-6-11 0-22 2-31 6-9 4-17 10-24 17-7 7-12 16-15 26-4 10-6 21-6 32 0 12 2 23 6 33 3 10 8 18 15 26 7 7 15 12 24 16 9 4 19 6 31 6 11 0 22-2 31-6 10-4 17-9 24-16 7-8 12-16 16-26 3-10 5-21 5-33z m-43 0c0 14-2 24-8 32-5 9-14 13-25 13-11 0-19-5-25-13-5-8-8-18-8-32 0-13 3-23 8-32 6-8 14-12 25-12 11 0 19 4 25 12 6 8 8 19 8 32z m170-60c-4-4-9-7-15-10-7-4-14-5-23-5-11 0-21 2-30 6-9 4-16 10-22 17-6 7-11 16-14 25-3 9-4 19-4 30 0 11 2 21 4 30 4 9 8 18 14 25 6 7 13 13 22 17 9 5 19 6 30 6 9 0 17-1 23-5 6-3 11-6 15-10v12h43v-138c0-15-3-27-8-36-5-10-11-18-19-24-7-6-16-11-26-14s-21-4-31-4c-11 0-21 1-30 4s-18 5-24 9v43c9-7 16-12 25-15 9-3 18-5 28-5 6 0 11 1 16 2 5 2 10 4 14 7 3 3 6 7 8 12 3 5 4 10 4 16v5z m0 89c-3 5-6 8-12 11-5 4-11 5-17 5-12 0-21-4-27-12-6-8-9-18-9-31 0-12 3-22 9-29 6-8 15-12 27-12 7 0 12 2 17 4 5 3 9 7 12 12v52z m124-106h-44v226h44v-226z m68 67c2-12 7-21 15-27 9-5 19-8 30-8 8 0 16 1 23 3 6 2 14 6 21 11v-36c-6-4-14-8-22-10-9-2-18-3-29-3-11 0-23 1-32 5s-18 9-25 16c-7 7-12 16-16 25-4 10-6 21-6 34 0 12 2 23 6 33 3 10 9 19 15 26 7 7 14 13 23 17 9 4 19 6 30 6 11 0 21-2 29-6 8-4 16-9 21-15 6-7 10-15 13-25 3-9 4-20 4-31v-14h-100z m33 57c-7 0-13-2-19-7-5-4-9-11-12-21h59c-1 8-3 15-8 20-5 5-11 8-20 8z m215-51v-73h-44v213h87c11 0 21-2 30-5 9-2 18-7 24-13s11-13 15-22c4-9 6-19 6-30 0-11-2-21-6-30-3-8-9-15-15-21s-15-11-24-14c-9-2-19-4-30-4h-43z m74 70c0 10-3 17-8 23-6 6-14 9-26 9h-40v-63h40c12 0 20 2 26 9s8 13 8 22z m115-143h-43v226h43v-226z m123 97c0 7-3 13-9 17-6 5-15 7-26 7-8 0-15-1-23-3-7-2-13-5-20-10v38c6 3 13 6 23 8 9 3 18 4 29 4 22 0 38-5 49-15s18-25 18-44v-99h-41v8c-3-2-8-5-15-7s-14-4-23-4c-8 0-16 1-22 4s-13 5-19 10c-5 4-9 9-12 15-3 6-4 14-4 22 0 7 1 14 4 20 3 6 7 11 13 16 5 4 12 8 19 10s15 4 24 4c6 0 13-1 20-3 6-2 11-4 15-6v8z m0-44c-2 5-6 8-11 10s-11 4-17 4c-3 0-6 0-10-1-3 0-6-2-9-3-2-2-4-4-6-6-1-2-2-5-2-9 0-3 1-6 2-8 2-3 4-5 6-7 3-1 6-2 9-3 4 0 7-1 10-1 6 0 12 1 17 4s9 5 11 10v10z m96-111l23 57-59 156h45l36-103 35 103h43l-81-212h-42z m-1455 378c6 0 11 0 15 2s9 4 13 7v28h-26v13h40v-46c-6-6-13-11-20-14-7-2-15-3-22-3-17 0-30 5-40 16-10 11-16 26-16 45 0 18 6 33 17 44 11 11 24 17 41 17 6 0 13-1 19-3s11-4 15-8v-16c-5 4-11 7-16 10-6 2-12 3-18 3-13 0-23-5-30-13-8-9-12-20-12-34s4-26 11-35c7-9 17-13 29-13z m128-6c-4-3-8-5-12-6-5-1-9-1-14-1-13 0-23 3-30 11-8 8-12 19-12 32 0 13 4 24 11 33 7 8 16 12 28 12 11 0 20-3 26-11 6-8 9-18 9-31v-5h-59c0-10 3-17 9-22s12-7 20-7c5 0 9 0 12 1s8 4 12 7v-13z m-29 69c-6 0-11-1-15-5-5-4-7-10-9-18h44c0 6-2 12-5 17-3 4-9 6-15 6z m77-1v-74h-15v74h-17v12h17v23h15v-23h20v-12h-20z m97 38c0-2-2-5-3-7-2-1-4-3-7-3-2 0-4 2-7 3-1 2-2 4-2 7 0 3 1 5 2 7 2 1 4 2 7 2 3 0 5-1 7-2 1-3 3-5 3-7z m-3-26v-86h-14v86h14z m50-12v-74h-14v74h-18v12h18v23h14v-23h20v-12h-20z m152-31c0-13-3-24-11-32-7-9-16-13-28-13-12 0-21 4-28 13-8 8-11 19-11 32 0 13 3 24 11 32 7 9 16 13 28 13 12 0 21-4 28-13 8-8 11-19 11-32z m-14 0c0 9-2 17-7 23-4 6-10 9-18 9-8 0-14-3-18-9-5-6-7-14-7-23 0-9 2-17 7-23s10-9 18-9c8 0 14 3 18 9s7 14 7 23z m34-43v86h15v-11c2 4 6 6 10 9 5 3 10 4 15 4 10 0 18-3 23-9s7-13 7-23v-56h-14v54c0 6-2 11-5 15-3 3-7 5-14 5-5 0-9-2-13-4-4-3-7-7-9-12v-58h-15z m-706-127l-92 53 0 0-213 124c-1 0-2 1-4 1 0 0-1 0-1 0-1 0-1 0-2 0-1 0-1 0-1 0-1 0-2-1-3-1h-1c0 0 0 0 0-1l0 0c-2 0-3-2-3-3l-1 0 0-1c-1-1-1-1-2-3 0 0 0 0-1 0l0 0c0-1 0-2 0-3v-360c0-1 0-3 0-4 0-1 1-1 1-1 1 0 1-1 2-2l0-1c0 0 0-1 1-1l0 0c0-1 1-1 3-2l0-1c0 0 1 0 1 0 1-1 2-2 4-2l0 0c1 0 2 1 3 1 2 0 3 1 3 1l304 185c3 2 5 6 5 10 2 4 0 9-3 11z m-214-122l-36-22 105 117 32-33-101-62z m-85 259l139-147-139-154v301l0 0z m154-129l-103 108 132-76-29-32z m52-56l-37 39 34 37 67-38-64-38z" horiz-adv-x="2792" />

<glyph glyph-name="plus" unicode="&#xe81b;" d="M1000 305h-481l-42-455h-91l42 455h-428v91h436l41 454h91l-41-455h473v-90z" horiz-adv-x="1000" />

<glyph glyph-name="search" unicode="&#xe81c;" d="M899 23l-207 207c39 54 63 120 63 193 0 181-147 328-328 328s-328-147-328-328 147-328 328-328c72 0 138 24 193 63l207-207 72 72z m-472 174c-124 0-225 101-225 225s101 225 225 225 225-101 225-225-101-225-225-225z" horiz-adv-x="1000" />

<glyph glyph-name="star-stroke" unicode="&#xe81d;" d="M803-111l-303 158-303-158 59 337-246 240 339 48 151 307 151-307 339-48-246-240 59-337z m-303 207l246-129-47 274 200 195-276 40-123 248-123-250-276-40 200-194-47-274 246 130z" horiz-adv-x="1000" />

<glyph glyph-name="star" unicode="&#xe81e;" d="M500 773l137-279 307-44-223-217 53-306-274 144-274-144 53 306-223 217 307 44 137 279z" horiz-adv-x="1000" />

<glyph glyph-name="twitter" unicode="&#xe81f;" d="M900 620c6 21-1 44-18 58-10 8-22 12-34 12-10 0-19-2-28-8-17-10-35-18-53-24-36 27-80 42-125 42-104 0-190-77-203-177-83 18-158 63-212 130-10 13-26 20-42 20h-4c-18-1-34-11-43-27-18-31-28-66-28-103 0-24 4-48 12-70-8-10-13-22-14-35v-3c0-53 20-102 54-139-2-9-2-19 1-28 12-37 33-68 61-92-18-4-36-6-55-6-10 0-20 1-30 2h-6c-23 0-43-14-51-36-8-24 1-50 22-64 78-50 168-76 260-76 142 0 269 56 359 158 77 88 122 204 124 318 25 21 46 45 65 73 6 9 10 20 10 32 0 17-8 33-22 43z m-107-122v-19c0-200-151-429-429-429-85 0-164 25-231 68 12-1 24-2 36-2 71 0 136 24 187 64-66 1-122 45-141 105 9-2 19-3 28-3 14 0 27 2 40 5-69 14-121 75-121 148v2c20-11 44-18 68-19-40 27-67 73-67 125 0 28 7 54 20 76 74-91 185-151 311-157-2 11-4 22-4 34 0 83 67 151 151 151 43 0 82-18 110-48 34 7 67 19 96 37-11-35-35-65-66-83 30 4 59 12 87 24-20-31-46-58-75-79z" horiz-adv-x="1000" />

<glyph glyph-name="twitter2" unicode="&#xe820;" d="M928 611c-31-14-65-23-100-27 36 22 64 56 77 97-34-20-71-35-111-42-32 34-77 55-127 55-96 0-175-78-175-175 0-14 2-27 5-40-145 7-274 77-360 182-15-26-24-56-24-88 0-61 31-114 78-145-29 1-56 9-79 22 0-1 0-1 0-2 0-85 60-155 140-171-15-4-30-6-46-6-11 0-22 1-33 3 22-69 87-120 163-121-60-47-135-75-217-75-14 0-28 1-42 2 77-50 169-78 268-78 321 0 497 266 497 497 0 8 0 15 0 23 33 23 62 53 86 89z" horiz-adv-x="1000" />

<glyph glyph-name="volume-off" unicode="&#xe821;" d="M392 773c25 25 46 17 46-19v-808c0-36-21-44-46-19l-236 236h-156v375h156l236 235z m546-528v-82h-83l-105 104-105-104h-82v82l104 105-104 105v83h82l105-105 105 105h83v-83l-105-105z" horiz-adv-x="1000" />

<glyph glyph-name="volume-on" unicode="&#xe822;" d="M703 38c-12 0-24 5-33 14-19 18-19 48 0 66 127 128 127 336 0 464-19 18-19 48 0 66s48 19 66 0c80-79 123-185 123-298s-43-219-123-298c-9-9-21-14-33-14z m-167 88c-12 0-24 5-33 14-18 18-18 48 0 66 79 80 79 208 0 288-18 18-18 48 0 66s48 18 66 0c116-116 116-304 0-420-9-9-21-14-33-14z m-144 647c25 25 46 17 46-19v-808c0-36-21-44-46-19l-236 236h-156v375h156l236 235z" horiz-adv-x="1000" />

<glyph glyph-name="whatsapp" unicode="&#xe823;" d="M782 634c-75 75-174 116-280 116-219 0-397-178-397-397 0-70 18-138 53-198l-56-205 210 55c58-32 123-48 190-48h0l0 0c219 0 397 178 397 397-1 105-42 205-117 280l0 0z m-280-611l0 0c-59 0-117 16-168 46l-12 7-125-33 33 123-8 13c-33 52-50 113-50 175 0 182 148 330 330 330 88 0 171-34 233-97 62-62 96-145 96-233 0-183-148-331-329-331l0 0z m180 248c-10 5-59 29-68 32-9 3-16 5-22-5-7-10-26-32-31-39-6-7-12-8-21-3-10 5-42 15-80 49-29 26-49 59-55 69-6 10-1 15 4 20 5 4 10 12 15 17 5 6 7 10 10 17 3 7 2 12-1 17s-22 54-30 74c-8 19-16 17-22 17-6 0-12 0-19 0s-17-3-26-12c-9-10-35-34-35-83s35-96 40-103c5-7 70-107 169-150 24-10 42-16 56-21 24-8 45-6 62-4 19 3 59 24 67 47 8 23 8 43 6 47-2 6-8 9-19 14l0 0z" horiz-adv-x="1000" />
</font>
</defs>
</svg>
